<?xml version="1.0" encoding="UTF-8"?>
<svg id="Estudei" data-name="Estudei" xmlns="http://www.w3.org/2000/svg" viewBox="0 0 1213.22 289.4">
    <defs>
        <style>
            .cls-1 {
                fill: #00CDA0;
                stroke-width: 0px;
            }

            .cls-2 {
                fill: #454A5E;
                stroke-width: 0px;
            }
        </style>
    </defs>
    <rect class="cls-1" x="32.33" y="26.22" width="263.18" height="263.18" rx="53.02" ry="53.02" />
    <g>
        <rect class="cls-2" x="96.3" width="33.19" height="52.45" />
        <rect class="cls-2" x="198.35" width="33.19" height="52.45" />
    </g>
    <g>
        <path class="cls-2"
            d="m369.51,84.82h-18.96l-16.59-.19c-.29,25.61-5.19,50.02-14.16,70.6-8.69,19.91-20.83,35.34-35.11,44.61-19.32,12.54-41.72,13.58-66.61,3.1-.51-.31-1.01-.62-1.5-.95,5.86-2.76,10.86-5.66,15-8.68,21.78-15.92,28.82-36.18,29.79-39.27,6.25-19.37,2.95-40.86-8.41-54.77-16.01-19.6-45.43-21.76-66.97-4.9-20.49,16.03-31.12,46.2-26.46,75.09.84,5.23,2.16,10.36,3.9,15.31-35.59,8.6-89.34,16.12-163.43,18.97l1.28,33.16c54.58-2.1,104.46-7.11,144.23-14.49,13.01-2.41,24.81-5.04,35.36-7.88,6.14,6.96,13.35,12.95,21.39,17.61l1.74.87c17.2,7.43,32.72,10.32,46.48,10.31,22.2,0,39.79-7.53,52.29-15.65,28.25-18.35,48.97-52.09,58.53-93.11,16.16,16.19,36.39,24.87,36.39,45.36,0,18.48-14.23,30.29-34.83,30.29-7.51,0-14.73-1.6-21.26-4.38-3.91,9.26-8.2,18.34-12.69,27.32,11.7,6.21,25.44,9.77,40.32,9.77,39.37,0,63.3-25.14,63.3-62.39,0-54.82-53.61-55.12-63-95.71Zm-174.26,90.27c-1.35-3.53-2.35-7.2-2.96-10.93-2.71-16.77,3.24-35.13,14.14-43.66,3.32-2.6,7.68-4.23,11.76-4.23,3.49,0,6.78,1.19,9.06,3.98,4.22,5.17,5.28,15.12,2.51,23.65l-.09.28c-.04.12-4.28,12.54-17.68,22.33-3.76,2.75-9.31,5.65-16.75,8.57Z" />
        <path class="cls-2"
            d="m488.43,187.46v-69.24l31.54-.02-.02-33.19-34.29.02c12.59-20.21,13.59-42.44,13.67-45.9l-33.18-.75c0,.3-.93,30.36-22.05,42.05-5.27,2.92-11.26,4.47-17.82,4.63h-2.4s-.32,33.19-.32,33.19c.51.01,1.03.02,1.54.02.48,0,.96,0,1.44-.01h27.56s0,74.73,0,74.73c0,30.95,18.38,48.1,52.39,48.1h20.53v-31.56h-15.62c-14.4,0-22.98-8.27-22.98-22.06Z" />
        <path class="cls-2"
            d="m686.15,193.58v-108.77h-34.32v88.85c0,22.67-15.63,37.99-38.91,37.99-22.06,0-36.46-15.01-36.46-37.38v-89.47h-34.32v99.58c0,36.46,23.9,60.36,59.74,60.36,22.67,0,40.75-9.19,52.7-26.35,5.21,14.71,18.38,22.67,38.91,22.67h10.11v-33.09h-3.06c-8.88,0-14.4-5.51-14.4-14.4Z" />
        <path class="cls-2"
            d="m878.59,193.58V20.47h-34.32v86.71c-12.87-16.24-31.86-26.04-54.84-26.04-44.12,0-76.9,35.23-76.9,81.81s32.78,81.81,76.9,81.81c23.9,0,43.81-10.72,56.99-28.49,4.6,16.24,18.08,24.82,39.52,24.82h9.8v-33.09h-2.76c-9.19,0-14.4-5.51-14.4-14.4Zm-82.42,18.08c-27.88,0-48.41-21.14-48.41-48.72s20.53-48.72,48.41-48.72,48.1,21.14,48.1,48.72-20.53,48.72-48.1,48.72Z" />
        <circle class="cls-2" cx="1135.65" cy="42.53" r="22.91" transform="translate(70.17 437.83) rotate(-22.5)" />
        <path class="cls-2"
            d="m1191.88,190.11c-19.69,16.54-42.62,23.77-54.53,17.2-9.2-5.08-12.43-19.73-13.52-31.14-1.56-16.33.51-33.47,1.5-41.72,1.58-13.15,5.04-26.13,10.28-38.58h0c.67-1.5,1.34-3,2.01-4.5l-30.38-13.36c-13.19,29.99-27.93,57.67-43.84,82.31-5.04,7.82-21.57,30.13-37.39,39.34-4.72,2.74-12.2,6.68-22.74,9.17-16.18,3.84-32.07,1.91-44.73-5.42-.7-.41-1.39-.83-2.08-1.27,4.93-2.49,9.84-5.34,14.57-8.69,10.19-7.23,23.66-19.92,29.95-39.31,6.29-19.4,3-40.94-8.38-54.87-16.01-19.6-45.43-21.76-66.97-4.9-20.49,16.02-31.12,46.2-26.46,75.09,4.23,26.2,20.2,49.64,42.73,62.68,13.5,7.82,29.04,11.82,45.23,11.82,7.83,0,15.81-.94,23.79-2.83,14.81-3.51,25.22-8.97,31.76-12.78,24.29-14.12,44.19-43.3,48.11-49.28,2.15,22.48,9.71,45.82,30.52,57.3,7.89,4.35,16.95,6.46,26.66,6.46,20.57,0,44.02-9.49,65.24-27.31l-21.34-25.41Zm-256.79-14.56c-1.44-3.67-2.51-7.5-3.14-11.39-2.71-16.77,3.24-35.13,14.14-43.66,3.32-2.6,7.68-4.23,11.76-4.23,3.49,0,6.79,1.19,9.06,3.98,4.22,5.17,5.28,15.12,2.51,23.65-3.48,10.74-11.48,18.15-17.57,22.47-5.13,3.64-10.78,6.54-16.76,9.18Z" />
    </g>
</svg>