<svg id="svg" version="1.1" xmlns="http://www.w3.org/2000/svg" xmlns:xlink="http://www.w3.org/1999/xlink" width="400" height="400" viewBox="0, 0, 400,400"><g id="svgg"><path id="path0" d="M46.701 147.300 C 46.549 147.685,46.137 148.000,45.786 148.000 C 45.336 148.000,45.219 148.229,45.391 148.770 C 45.549 149.269,45.395 149.675,44.956 149.921 C 44.535 150.156,44.374 150.554,44.531 150.966 C 44.686 151.369,44.554 151.719,44.196 151.857 C 43.799 152.009,43.684 152.396,43.845 153.038 C 44.015 153.713,43.890 154.067,43.419 154.248 C 43.053 154.388,42.851 154.757,42.970 155.067 C 43.089 155.377,42.921 155.732,42.596 155.857 C 42.199 156.009,42.084 156.396,42.245 157.038 C 42.415 157.713,42.290 158.067,41.819 158.248 C 41.453 158.388,41.247 158.745,41.360 159.040 C 41.473 159.335,41.304 159.839,40.984 160.159 C 40.664 160.479,40.511 161.023,40.643 161.368 C 40.803 161.785,40.579 162.108,39.973 162.332 C 39.343 162.565,39.214 162.762,39.553 162.971 C 39.929 163.203,39.895 163.501,39.405 164.248 C 39.054 164.784,38.876 165.399,39.009 165.615 C 39.142 165.830,38.849 166.156,38.357 166.338 C 37.829 166.533,37.640 166.777,37.894 166.935 C 38.403 167.249,38.084 168.800,37.511 168.800 C 37.293 168.800,37.213 169.057,37.333 169.371 C 37.454 169.685,37.293 170.157,36.976 170.420 C 36.659 170.683,36.400 171.326,36.400 171.849 C 36.400 172.460,36.168 172.800,35.751 172.800 C 35.216 172.800,35.191 172.907,35.606 173.408 C 36.018 173.904,35.984 174.155,35.416 174.782 C 35.034 175.204,34.841 175.742,34.986 175.978 C 35.132 176.213,34.964 176.516,34.613 176.650 C 34.221 176.801,34.063 177.168,34.202 177.605 C 34.326 177.996,34.140 178.603,33.788 178.955 C 33.437 179.306,33.269 179.787,33.415 180.024 C 33.562 180.262,33.310 180.551,32.850 180.671 C 32.148 180.855,32.088 181.017,32.460 181.712 C 32.812 182.369,32.766 182.636,32.236 183.023 C 31.870 183.291,31.598 183.665,31.632 183.855 C 31.792 184.739,31.553 185.268,31.075 185.084 C 30.696 184.939,30.598 185.203,30.721 186.041 C 30.829 186.780,30.714 187.200,30.403 187.200 C 30.114 187.200,30.018 187.469,30.167 187.858 C 30.307 188.224,30.131 188.834,29.770 189.233 C 29.414 189.627,29.241 190.142,29.386 190.378 C 29.532 190.613,29.364 190.916,29.013 191.050 C 28.627 191.198,28.463 191.569,28.597 191.991 C 28.719 192.374,28.540 192.918,28.200 193.200 C 27.860 193.482,27.681 194.026,27.803 194.409 C 27.939 194.837,27.770 195.203,27.367 195.357 C 26.938 195.522,26.784 195.895,26.924 196.429 C 27.056 196.934,26.915 197.335,26.557 197.472 C 26.198 197.610,26.068 197.983,26.216 198.449 C 26.372 198.941,26.225 199.292,25.795 199.457 C 25.382 199.616,25.211 199.998,25.337 200.480 C 25.455 200.933,25.299 201.340,24.957 201.472 C 24.609 201.605,24.468 201.985,24.606 202.418 C 24.747 202.864,24.575 203.286,24.156 203.521 C 23.750 203.748,23.575 204.158,23.721 204.539 C 23.856 204.890,23.734 205.409,23.451 205.692 C 23.168 205.975,23.003 206.410,23.086 206.657 C 23.168 206.905,22.946 207.397,22.592 207.751 C 22.239 208.104,22.078 208.603,22.236 208.858 C 22.393 209.113,22.202 209.555,21.811 209.841 C 21.382 210.155,21.199 210.622,21.351 211.018 C 21.523 211.466,21.347 211.741,20.793 211.886 C 20.170 212.049,20.085 212.221,20.426 212.631 C 20.970 213.287,20.519 214.131,19.777 213.846 C 19.352 213.683,19.316 213.854,19.613 214.633 C 19.907 215.406,19.853 215.682,19.373 215.866 C 19.019 216.001,18.854 216.363,18.987 216.709 C 19.115 217.043,18.927 217.638,18.570 218.033 C 18.214 218.427,18.031 218.926,18.164 219.143 C 18.298 219.359,18.181 219.775,17.904 220.068 C 17.627 220.360,17.400 220.960,17.400 221.400 C 17.400 221.880,17.132 222.202,16.728 222.205 C 16.359 222.208,15.909 222.372,15.728 222.569 C 15.544 222.771,15.601 222.814,15.858 222.666 C 16.625 222.228,16.917 223.725,16.172 224.270 C 15.786 224.552,15.603 225.032,15.743 225.396 C 15.885 225.767,15.740 226.125,15.393 226.258 C 14.645 226.545,14.638 227.095,15.371 227.829 C 15.826 228.283,17.468 228.400,23.381 228.400 L 30.820 228.400 31.067 227.166 C 31.203 226.487,31.564 225.835,31.869 225.718 C 32.190 225.595,32.329 225.205,32.198 224.795 C 32.074 224.404,32.238 223.819,32.563 223.494 C 32.899 223.158,33.057 222.540,32.931 222.057 C 32.783 221.493,32.929 221.125,33.367 220.957 C 33.794 220.793,33.940 220.442,33.784 219.951 C 33.629 219.460,33.775 219.108,34.202 218.944 C 34.651 218.772,34.788 218.406,34.634 217.792 C 34.495 217.238,34.644 216.696,35.022 216.382 C 35.360 216.101,35.546 215.635,35.435 215.346 C 35.324 215.058,35.523 214.659,35.876 214.461 C 36.296 214.227,36.440 213.796,36.291 213.226 C 36.142 212.656,36.271 212.271,36.661 212.121 C 37.066 211.966,37.182 211.583,37.020 210.937 C 36.857 210.287,36.974 209.908,37.387 209.750 C 37.800 209.591,37.918 209.212,37.755 208.562 C 37.585 207.887,37.710 207.533,38.181 207.352 C 38.547 207.212,38.751 206.850,38.636 206.548 C 38.328 205.748,38.792 204.800,39.492 204.800 C 39.977 204.800,40.002 204.684,39.615 204.218 C 39.065 203.555,39.377 202.800,40.200 202.800 C 40.504 202.800,40.881 202.592,41.038 202.338 C 41.205 202.069,41.149 201.984,40.904 202.136 C 40.673 202.279,40.375 202.112,40.242 201.765 C 39.897 200.867,39.925 200.800,40.647 200.800 C 41.126 200.800,41.242 200.533,41.096 199.768 C 40.968 199.099,41.100 198.660,41.471 198.517 C 41.789 198.395,41.992 197.900,41.927 197.404 C 41.862 196.913,42.053 196.218,42.350 195.861 C 42.647 195.503,42.787 194.943,42.661 194.616 C 42.536 194.289,42.724 193.859,43.078 193.660 C 43.457 193.448,43.622 193.036,43.479 192.661 C 43.344 192.310,43.508 191.749,43.842 191.415 C 44.177 191.080,44.322 190.597,44.164 190.342 C 44.007 190.087,44.198 189.644,44.590 189.358 C 45.038 189.030,45.223 188.532,45.089 188.017 C 44.957 187.513,45.115 187.064,45.499 186.849 C 45.843 186.656,46.019 186.227,45.892 185.895 C 45.765 185.563,45.933 184.903,46.266 184.427 C 47.041 183.321,48.175 184.048,47.829 185.429 C 47.688 185.990,47.814 186.396,48.172 186.534 C 48.531 186.672,48.654 187.071,48.509 187.626 C 48.358 188.205,48.506 188.628,48.949 188.875 C 49.316 189.081,49.505 189.429,49.369 189.650 C 49.233 189.870,49.414 190.373,49.770 190.767 C 50.142 191.178,50.308 191.773,50.159 192.161 C 49.997 192.585,50.174 193.039,50.635 193.376 C 51.231 193.812,51.277 194.025,50.876 194.508 C 50.470 194.998,50.533 195.142,51.241 195.327 C 51.922 195.505,52.048 195.754,51.852 196.534 C 51.678 197.228,51.794 197.589,52.245 197.762 C 52.690 197.933,52.812 198.298,52.645 198.962 C 52.479 199.626,52.600 199.991,53.044 200.162 C 53.425 200.308,53.586 200.660,53.443 201.033 C 53.310 201.378,53.482 201.939,53.824 202.281 C 54.166 202.623,54.343 203.173,54.216 203.502 C 54.090 203.832,54.269 204.309,54.615 204.561 C 55.268 205.039,55.022 206.585,54.358 206.174 C 54.161 206.052,54.000 206.058,54.000 206.186 C 54.000 206.315,54.468 206.598,55.041 206.815 C 55.749 207.085,56.005 207.410,55.842 207.835 C 55.710 208.179,55.878 208.735,56.215 209.072 C 56.552 209.409,56.726 210.004,56.602 210.395 C 56.464 210.828,56.619 211.198,56.998 211.344 C 57.425 211.508,57.545 211.881,57.380 212.537 C 57.220 213.173,57.334 213.566,57.721 213.714 C 58.103 213.861,58.233 214.294,58.101 214.985 C 57.957 215.735,58.057 216.000,58.450 215.917 C 58.827 215.837,58.966 216.133,58.892 216.854 C 58.824 217.523,59.017 217.998,59.420 218.152 C 59.844 218.315,59.971 218.662,59.801 219.198 C 59.661 219.639,59.719 220.000,59.930 220.000 C 60.534 220.000,60.858 221.248,60.398 221.802 C 60.093 222.170,60.201 222.359,60.808 222.518 C 61.453 222.687,61.579 222.945,61.386 223.713 C 61.214 224.398,61.329 224.764,61.770 224.933 C 62.117 225.066,62.400 225.415,62.400 225.708 C 62.400 226.001,62.625 226.725,62.900 227.317 L 63.400 228.394 68.200 228.443 C 72.767 228.490,78.139 228.393,78.253 228.261 C 78.698 227.750,78.766 225.598,78.334 225.689 C 78.013 225.756,77.829 225.481,77.872 225.000 C 77.912 224.561,77.672 224.048,77.339 223.862 C 76.946 223.642,76.814 223.199,76.964 222.603 C 77.116 221.997,76.993 221.606,76.604 221.457 C 76.246 221.319,76.114 220.969,76.269 220.566 C 76.426 220.154,76.265 219.756,75.844 219.521 C 75.425 219.286,75.253 218.864,75.394 218.418 C 75.538 217.967,75.384 217.603,74.987 217.450 C 74.636 217.316,74.468 217.013,74.614 216.778 C 74.759 216.542,74.573 216.012,74.200 215.600 C 73.827 215.188,73.652 214.639,73.812 214.380 C 73.972 214.122,73.874 213.769,73.594 213.596 C 72.983 213.219,72.083 210.752,72.308 210.076 C 72.396 209.811,72.661 209.714,72.896 209.859 C 73.143 210.012,73.207 209.936,73.049 209.679 C 72.898 209.435,72.533 209.327,72.239 209.440 C 71.547 209.706,71.060 208.451,71.602 207.798 C 71.908 207.429,71.794 207.239,71.168 207.076 C 70.668 206.945,70.434 206.668,70.599 206.402 C 70.753 206.153,70.586 205.627,70.230 205.233 C 69.873 204.838,69.685 204.243,69.813 203.909 C 69.946 203.564,69.781 203.202,69.430 203.067 C 69.064 202.926,68.912 202.573,69.057 202.196 C 69.197 201.832,69.014 201.352,68.628 201.070 C 67.904 200.540,68.166 199.008,68.904 199.464 C 69.143 199.612,69.205 199.533,69.049 199.279 C 68.898 199.035,68.512 198.936,68.191 199.059 C 67.840 199.193,67.514 198.986,67.374 198.542 C 67.246 198.134,66.978 197.492,66.777 197.116 C 66.577 196.740,66.519 196.155,66.649 195.816 C 66.779 195.477,66.704 195.200,66.482 195.200 C 66.054 195.200,65.082 193.034,65.031 191.965 C 65.014 191.615,64.753 191.030,64.451 190.665 C 64.035 190.160,64.012 189.867,64.359 189.449 C 64.719 189.016,64.643 188.852,64.004 188.685 C 63.323 188.507,63.253 188.313,63.567 187.486 C 63.876 186.673,63.824 186.507,63.271 186.549 C 62.802 186.585,62.629 186.329,62.695 185.700 C 62.748 185.205,62.613 184.800,62.395 184.800 C 62.178 184.800,62.000 184.369,62.000 183.843 C 62.000 183.316,61.711 182.775,61.358 182.639 C 60.976 182.493,60.814 182.141,60.957 181.767 C 61.090 181.422,60.922 180.865,60.585 180.528 C 60.248 180.191,60.074 179.596,60.198 179.205 C 60.337 178.768,60.179 178.401,59.787 178.250 C 59.436 178.116,59.268 177.813,59.414 177.578 C 59.559 177.342,59.386 176.827,59.030 176.433 C 58.669 176.034,58.493 175.424,58.633 175.058 C 58.774 174.692,58.689 174.400,58.443 174.400 C 58.199 174.400,58.000 174.062,58.000 173.649 C 58.000 173.236,57.722 172.667,57.382 172.385 C 57.042 172.103,56.861 171.617,56.981 171.306 C 57.100 170.995,56.936 170.479,56.616 170.159 C 56.296 169.839,56.125 169.341,56.235 169.053 C 56.346 168.764,56.169 168.306,55.842 168.035 C 55.515 167.764,55.346 167.285,55.467 166.971 C 55.587 166.657,55.506 166.400,55.286 166.400 C 54.669 166.400,54.336 165.159,54.802 164.598 C 55.108 164.229,54.994 164.039,54.368 163.876 C 53.868 163.745,53.634 163.468,53.799 163.202 C 53.953 162.953,53.766 162.404,53.384 161.982 C 52.846 161.388,52.794 161.089,53.153 160.656 C 53.521 160.214,53.449 160.054,52.807 159.886 C 52.253 159.741,52.077 159.466,52.249 159.018 C 52.402 158.618,52.213 158.152,51.765 157.824 C 51.142 157.368,51.111 157.189,51.564 156.643 C 52.016 156.099,52.002 156.000,51.473 156.000 C 50.589 156.000,50.293 155.347,50.772 154.452 C 51.101 153.837,51.032 153.649,50.416 153.488 C 49.886 153.350,49.715 153.046,49.858 152.499 C 49.990 151.997,49.825 151.618,49.405 151.457 C 48.975 151.292,48.828 150.941,48.984 150.449 C 49.135 149.974,48.999 149.609,48.619 149.463 C 48.271 149.329,48.114 148.968,48.250 148.615 C 48.399 148.226,48.260 148.000,47.872 148.000 C 47.535 148.000,47.195 147.685,47.118 147.300 C 46.983 146.633,46.963 146.633,46.701 147.300 M280.000 170.576 C 280.000 171.113,280.187 171.669,280.416 171.810 C 280.645 171.952,280.730 172.391,280.604 172.786 C 280.465 173.225,280.614 173.597,280.988 173.740 C 281.325 173.869,281.600 174.330,281.600 174.764 C 281.600 175.198,281.796 175.674,282.035 175.822 C 282.274 175.969,282.384 176.418,282.279 176.819 C 282.169 177.239,282.344 177.646,282.690 177.779 C 283.059 177.921,283.210 178.317,283.083 178.806 C 282.957 179.285,283.123 179.741,283.499 179.951 C 283.852 180.149,284.020 180.571,283.886 180.921 C 283.755 181.262,283.919 181.767,284.252 182.043 C 284.584 182.319,284.773 182.860,284.672 183.246 C 284.571 183.632,284.739 184.044,285.044 184.162 C 285.350 184.279,285.600 184.730,285.600 185.164 C 285.600 185.598,285.787 186.069,286.016 186.210 C 286.245 186.352,286.330 186.791,286.204 187.186 C 286.061 187.638,286.220 187.999,286.633 188.157 C 287.062 188.322,287.216 188.695,287.076 189.229 C 286.944 189.734,287.085 190.135,287.443 190.272 C 287.784 190.403,287.932 190.786,287.800 191.200 C 287.661 191.637,287.825 192.001,288.231 192.156 C 288.690 192.333,288.814 192.692,288.645 193.362 C 288.483 194.007,288.599 194.391,289.003 194.546 C 289.331 194.672,289.600 195.130,289.600 195.564 C 289.600 195.998,289.787 196.469,290.016 196.610 C 290.245 196.752,290.330 197.191,290.204 197.586 C 290.062 198.034,290.218 198.398,290.618 198.551 C 290.970 198.687,291.194 199.113,291.115 199.499 C 291.036 199.884,291.241 200.406,291.570 200.657 C 292.044 201.018,292.069 201.235,291.688 201.694 C 290.897 202.646,291.521 202.800,296.167 202.797 C 300.927 202.794,301.600 202.437,301.600 199.920 C 301.600 199.524,301.882 199.200,302.227 199.200 C 302.665 199.200,302.780 198.967,302.608 198.425 C 302.473 197.999,302.579 197.234,302.843 196.725 C 303.827 194.836,304.000 194.396,304.000 193.793 C 304.000 193.453,304.275 193.069,304.612 192.940 C 304.986 192.797,305.135 192.425,304.996 191.986 C 304.870 191.591,304.955 191.152,305.184 191.010 C 305.413 190.869,305.600 190.398,305.600 189.964 C 305.600 189.530,305.869 189.072,306.198 188.946 C 306.526 188.819,306.685 188.538,306.551 188.320 C 306.416 188.102,306.531 187.446,306.806 186.862 C 307.082 186.278,307.463 185.395,307.654 184.900 C 308.327 183.151,308.897 181.792,309.247 181.105 C 309.441 180.723,309.600 180.059,309.600 179.629 C 309.600 179.199,309.780 178.736,310.000 178.600 C 310.220 178.464,310.400 178.003,310.400 177.576 C 310.400 177.149,310.580 176.800,310.800 176.800 C 311.020 176.800,311.200 176.344,311.200 175.787 C 311.200 175.231,311.450 174.679,311.756 174.562 C 312.077 174.438,312.226 174.022,312.109 173.574 C 311.998 173.148,312.108 172.800,312.353 172.800 C 312.599 172.800,312.800 172.344,312.800 171.787 C 312.800 171.231,313.070 170.671,313.400 170.545 C 314.968 169.943,313.618 169.601,309.700 169.606 C 304.935 169.613,304.486 169.752,304.553 171.200 C 304.586 171.907,304.403 172.185,303.927 172.149 C 303.363 172.106,303.331 172.224,303.727 172.873 C 304.113 173.506,304.074 173.742,303.519 174.154 C 303.083 174.479,302.919 174.970,303.065 175.525 C 303.215 176.102,303.077 176.472,302.648 176.637 C 302.209 176.805,302.079 177.174,302.236 177.803 C 302.383 178.386,302.254 178.847,301.885 179.061 C 301.565 179.248,301.325 179.850,301.352 180.400 C 301.385 181.087,301.190 181.402,300.728 181.405 C 300.359 181.408,299.909 181.572,299.728 181.769 C 299.544 181.971,299.601 182.014,299.858 181.866 C 300.365 181.577,300.934 182.660,300.578 183.236 C 300.454 183.436,300.104 183.600,299.800 183.600 C 299.496 183.600,299.119 183.808,298.962 184.062 C 298.795 184.331,298.851 184.416,299.096 184.264 C 299.824 183.815,300.100 185.338,299.385 185.860 C 298.964 186.168,298.819 186.629,298.981 187.141 C 299.150 187.672,299.007 188.068,298.556 188.321 C 298.117 188.566,297.972 188.949,298.145 189.401 C 298.293 189.786,298.248 190.304,298.045 190.551 C 297.843 190.798,297.614 191.436,297.538 191.969 C 297.368 193.165,296.485 193.527,296.164 192.533 C 296.034 192.130,295.743 191.413,295.517 190.939 C 295.292 190.466,295.187 189.838,295.286 189.543 C 295.384 189.248,295.219 188.762,294.919 188.461 C 294.618 188.161,294.474 187.596,294.598 187.205 C 294.739 186.762,294.576 186.400,294.166 186.242 C 293.722 186.072,293.569 185.673,293.695 185.015 C 293.814 184.395,293.669 183.959,293.298 183.816 C 292.900 183.663,292.794 183.277,292.965 182.596 C 293.149 181.862,293.055 181.600,292.608 181.600 C 292.230 181.600,292.000 181.230,292.000 180.624 C 292.000 180.087,291.805 179.527,291.568 179.380 C 291.330 179.233,291.238 178.701,291.365 178.198 C 291.516 177.594,291.391 177.206,290.997 177.054 C 290.669 176.928,290.400 176.380,290.400 175.836 C 290.400 175.292,290.219 174.736,289.999 174.599 C 289.778 174.463,289.707 173.912,289.842 173.375 C 290.025 172.644,289.926 172.400,289.443 172.400 C 289.039 172.400,288.800 172.059,288.800 171.480 C 288.800 169.874,288.090 169.600,283.920 169.600 C 280.031 169.600,280.000 169.608,280.000 170.576 M326.717 172.100 C 326.419 175.981,326.808 202.160,327.169 202.525 C 327.478 202.837,332.089 202.909,347.100 202.834 L 354.000 202.800 354.000 199.407 L 354.000 196.015 344.700 195.907 L 335.400 195.800 335.333 192.801 C 335.240 188.617,334.860 188.800,343.649 188.800 L 351.200 188.800 351.200 185.849 C 351.200 183.743,351.032 182.758,350.613 182.411 C 350.102 181.987,340.811 181.801,336.400 182.126 C 335.428 182.198,335.397 182.118,335.282 179.300 C 335.172 176.582,335.218 176.400,336.006 176.400 C 336.573 176.400,336.749 176.563,336.547 176.900 C 336.324 177.270,336.414 177.264,336.892 176.877 C 337.376 176.485,339.332 176.366,344.669 176.401 C 348.591 176.428,352.025 176.438,352.300 176.425 C 352.659 176.407,352.800 175.440,352.800 173.000 L 352.800 169.600 339.855 169.600 L 326.910 169.600 326.717 172.100 M369.600 186.214 L 369.600 202.828 373.700 202.714 L 377.800 202.600 377.904 186.100 L 378.008 169.600 373.804 169.600 L 369.600 169.600 369.600 186.214 " stroke="none" fill="#faf6f8" fill-rule="evenodd"></path><path id="path1" d="M120.700 153.500 C 126.255 153.562,135.345 153.562,140.900 153.500 C 146.455 153.437,141.910 153.386,130.800 153.386 C 119.690 153.386,115.145 153.437,120.700 153.500 M224.300 153.482 C 224.795 153.578,225.605 153.578,226.100 153.482 C 226.595 153.387,226.190 153.309,225.200 153.309 C 224.210 153.309,223.805 153.387,224.300 153.482 M219.200 174.273 C 208.133 176.089,203.529 190.903,211.509 199.018 C 217.902 205.518,230.235 205.096,235.519 198.195 C 244.637 186.286,234.706 171.728,219.200 174.273 M131.200 188.778 L 131.200 203.200 134.386 203.200 L 137.571 203.200 137.686 199.300 L 137.800 195.400 142.800 195.176 C 145.550 195.053,148.160 194.809,148.600 194.633 C 152.225 193.188,153.852 191.777,155.200 188.910 C 156.777 185.555,155.902 180.411,153.313 177.822 C 150.592 175.101,148.571 174.611,139.500 174.478 L 131.200 174.355 131.200 188.778 M170.400 188.800 L 170.400 203.200 173.586 203.200 L 176.771 203.200 176.886 199.300 L 177.000 195.400 180.033 195.284 L 183.067 195.169 185.809 199.184 L 188.552 203.200 191.876 203.200 C 193.941 203.200,195.200 203.040,195.200 202.778 C 195.200 202.301,192.481 198.187,190.630 195.862 L 189.406 194.325 190.403 193.540 C 195.982 189.151,196.926 182.960,192.741 178.194 C 189.978 175.047,187.528 174.413,178.100 174.406 L 170.400 174.400 170.400 188.800 M326.140 181.200 C 326.140 183.070,326.209 183.835,326.293 182.900 C 326.377 181.965,326.377 180.435,326.293 179.500 C 326.209 178.565,326.140 179.330,326.140 181.200 M227.955 180.972 C 233.671 184.580,233.384 193.830,227.462 196.878 C 218.190 201.648,209.792 189.838,216.936 182.074 C 219.334 179.468,224.719 178.929,227.955 180.972 M146.627 180.586 C 149.653 181.850,150.017 186.825,147.221 188.701 C 145.972 189.539,145.465 189.616,141.821 189.513 L 137.800 189.400 137.685 185.227 C 137.622 182.932,137.661 180.817,137.773 180.527 C 138.064 179.767,144.775 179.812,146.627 180.586 M186.278 180.782 C 188.001 181.833,188.724 184.142,188.042 186.419 C 187.262 189.020,185.861 189.635,181.000 189.506 L 177.000 189.400 176.885 185.227 C 176.822 182.932,176.861 180.817,176.973 180.527 C 177.324 179.612,184.690 179.814,186.278 180.782 M352.600 203.200 L 351.400 203.505 352.476 203.553 C 353.068 203.579,353.664 203.420,353.800 203.200 C 353.936 202.980,353.992 202.821,353.924 202.847 C 353.856 202.873,353.260 203.032,352.600 203.200 " stroke="none" fill="#040a08" fill-rule="evenodd"></path><path id="path2" d="M107.100 153.720 L 106.000 154.154 106.000 188.077 L 106.000 222.000 107.200 222.000 C 107.860 222.000,108.400 222.180,108.400 222.400 C 108.400 222.665,134.075 222.800,184.624 222.800 C 235.337 222.800,260.764 222.666,260.600 222.400 C 260.464 222.180,260.543 222.000,260.776 222.000 C 261.009 222.000,261.200 222.208,261.200 222.462 C 261.200 222.726,261.539 222.617,261.991 222.208 C 262.767 221.506,262.782 220.857,262.788 188.736 C 262.794 154.814,262.803 155.012,261.207 153.745 C 260.522 153.201,226.594 152.943,226.928 153.484 C 227.036 153.658,226.258 153.800,225.200 153.800 C 224.142 153.800,223.360 153.665,223.462 153.500 C 223.564 153.335,207.246 153.200,187.200 153.200 C 167.154 153.200,150.836 153.335,150.938 153.500 C 151.041 153.665,141.916 153.710,130.662 153.600 C 119.408 153.490,110.140 153.535,110.067 153.700 C 109.993 153.865,109.758 154.000,109.543 154.000 C 109.328 154.000,109.264 153.820,109.400 153.600 C 109.713 153.093,108.531 153.154,107.100 153.720 M262.294 167.100 C 262.212 168.145,262.144 167.290,262.144 165.200 C 262.144 163.110,262.212 162.255,262.294 163.300 C 262.376 164.345,262.376 166.055,262.294 167.100 M354.109 172.000 C 354.109 172.990,354.187 173.395,354.282 172.900 C 354.378 172.405,354.378 171.595,354.282 171.100 C 354.187 170.605,354.109 171.010,354.109 172.000 M262.287 175.495 C 262.195 176.103,262.117 175.700,262.114 174.600 C 262.111 173.500,262.187 173.003,262.282 173.495 C 262.377 173.986,262.379 174.886,262.287 175.495 M228.149 174.604 C 241.438 178.065,242.505 198.345,229.617 202.530 C 211.420 208.441,198.497 186.942,214.000 176.551 C 217.787 174.012,223.081 173.284,228.149 174.604 M290.800 174.553 C 290.800 174.883,290.980 175.264,291.200 175.400 C 291.420 175.536,291.600 175.377,291.600 175.047 C 291.600 174.717,291.420 174.336,291.200 174.200 C 290.980 174.064,290.800 174.223,290.800 174.553 M150.051 175.705 C 155.290 178.278,157.515 183.985,155.200 188.910 C 153.852 191.777,152.225 193.188,148.600 194.633 C 148.160 194.809,145.550 195.053,142.800 195.176 L 137.800 195.400 137.686 199.300 L 137.571 203.200 134.386 203.200 L 131.200 203.200 131.200 188.778 L 131.200 174.355 139.500 174.478 C 147.637 174.598,147.844 174.622,150.051 175.705 M187.548 175.020 C 192.732 176.826,195.200 179.997,195.200 184.853 C 195.200 188.465,193.929 190.766,190.403 193.540 L 189.406 194.325 190.630 195.862 C 192.481 198.187,195.200 202.301,195.200 202.778 C 195.200 203.040,193.941 203.200,191.876 203.200 L 188.552 203.200 185.809 199.184 L 183.067 195.169 180.033 195.284 L 177.000 195.400 176.886 199.300 L 176.771 203.200 173.586 203.200 L 170.400 203.200 170.400 188.800 L 170.400 174.400 178.100 174.406 C 183.949 174.410,186.220 174.558,187.548 175.020 M326.540 181.200 C 326.540 183.070,326.609 183.835,326.693 182.900 C 326.777 181.965,326.777 180.435,326.693 179.500 C 326.609 178.565,326.540 179.330,326.540 181.200 M221.000 179.850 C 212.783 181.947,211.804 194.098,219.600 197.231 C 228.230 200.699,235.606 190.921,230.277 183.078 C 228.629 180.653,224.071 179.067,221.000 179.850 M137.773 180.527 C 137.661 180.817,137.622 182.932,137.685 185.227 L 137.800 189.400 141.821 189.513 C 145.465 189.616,145.972 189.539,147.221 188.701 C 150.017 186.825,149.653 181.850,146.627 180.586 C 144.775 179.812,138.064 179.767,137.773 180.527 M176.973 180.527 C 176.861 180.817,176.822 182.932,176.885 185.227 L 177.000 189.400 181.000 189.506 C 185.861 189.635,187.262 189.020,188.042 186.419 C 188.724 184.142,188.001 181.833,186.278 180.782 C 184.690 179.814,177.324 179.612,176.973 180.527 M262.287 183.895 C 262.195 184.503,262.117 184.100,262.114 183.000 C 262.111 181.900,262.187 181.403,262.282 181.895 C 262.377 182.386,262.379 183.286,262.287 183.895 M144.400 183.600 C 144.400 183.820,144.029 184.000,143.576 184.000 C 143.123 184.000,142.864 183.820,143.000 183.600 C 143.136 183.380,143.507 183.200,143.824 183.200 C 144.141 183.200,144.400 183.380,144.400 183.600 M326.540 191.200 C 326.540 193.070,326.609 193.835,326.693 192.900 C 326.777 191.965,326.777 190.435,326.693 189.500 C 326.609 188.565,326.540 189.330,326.540 191.200 M354.056 197.400 C 354.056 197.840,354.211 198.560,354.400 199.000 L 354.744 199.800 354.744 199.000 C 354.744 198.560,354.589 197.840,354.400 197.400 L 354.056 196.600 354.056 197.400 M341.390 203.224 C 342.127 203.444,342.729 203.431,342.970 203.190 C 343.223 202.937,342.805 202.812,341.780 202.834 C 340.219 202.868,340.214 202.873,341.390 203.224 M349.900 203.190 C 350.615 203.360,351.785 203.360,352.500 203.190 C 353.538 202.944,353.276 202.882,351.200 202.882 C 349.124 202.882,348.862 202.944,349.900 203.190 M369.428 203.245 C 369.637 203.583,371.509 203.424,371.898 203.035 C 372.048 202.886,371.513 202.808,370.711 202.862 C 369.908 202.916,369.331 203.088,369.428 203.245 M373.300 203.076 C 373.685 203.176,374.315 203.176,374.700 203.076 C 375.085 202.975,374.770 202.893,374.000 202.893 C 373.230 202.893,372.915 202.975,373.300 203.076 M147.700 222.299 C 145.005 222.368,140.595 222.368,137.900 222.299 C 135.205 222.230,137.410 222.173,142.800 222.173 C 148.190 222.173,150.395 222.230,147.700 222.299 M231.100 222.296 C 229.835 222.375,227.765 222.375,226.500 222.296 C 225.235 222.216,226.270 222.151,228.800 222.151 C 231.330 222.151,232.365 222.216,231.100 222.296 " stroke="none" fill="#159176" fill-rule="evenodd"></path><path id="path3" d="M262.144 165.200 C 262.144 167.290,262.212 168.145,262.294 167.100 C 262.376 166.055,262.376 164.345,262.294 163.300 C 262.212 162.255,262.144 163.110,262.144 165.200 M262.114 174.600 C 262.117 175.700,262.195 176.103,262.287 175.495 C 262.379 174.886,262.377 173.986,262.282 173.495 C 262.187 173.003,262.111 173.500,262.114 174.600 M262.114 183.000 C 262.117 184.100,262.195 184.503,262.287 183.895 C 262.379 183.286,262.377 182.386,262.282 181.895 C 262.187 181.403,262.111 181.900,262.114 183.000 M143.000 183.600 C 142.864 183.820,143.123 184.000,143.576 184.000 C 144.029 184.000,144.400 183.820,144.400 183.600 C 144.400 183.380,144.141 183.200,143.824 183.200 C 143.507 183.200,143.136 183.380,143.000 183.600 M137.900 222.299 C 140.595 222.368,145.005 222.368,147.700 222.299 C 150.395 222.230,148.190 222.173,142.800 222.173 C 137.410 222.173,135.205 222.230,137.900 222.299 M226.500 222.296 C 227.765 222.375,229.835 222.375,231.100 222.296 C 232.365 222.216,231.330 222.151,228.800 222.151 C 226.270 222.151,225.235 222.216,226.500 222.296 " stroke="none" fill="#149c7a" fill-rule="evenodd"></path><path id="path4" d="M45.200 147.429 C 45.200 147.802,45.472 148.006,45.867 147.929 C 46.870 147.735,47.008 146.800,46.033 146.800 C 45.542 146.800,45.200 147.058,45.200 147.429 M47.200 147.400 C 47.200 147.730,47.470 148.000,47.800 148.000 C 48.130 148.000,48.400 147.730,48.400 147.400 C 48.400 147.070,48.130 146.800,47.800 146.800 C 47.470 146.800,47.200 147.070,47.200 147.400 M44.400 149.176 C 44.400 149.603,44.220 150.064,44.000 150.200 C 43.412 150.564,43.503 152.101,44.100 151.892 C 44.375 151.796,44.543 151.404,44.474 151.022 C 44.405 150.639,44.657 150.100,45.035 149.824 C 45.413 149.547,45.594 149.114,45.438 148.861 C 44.992 148.140,44.400 148.320,44.400 149.176 M48.278 148.656 C 47.958 148.975,48.319 149.600,48.824 149.600 C 49.031 149.600,49.200 149.330,49.200 149.000 C 49.200 148.381,48.728 148.205,48.278 148.656 M49.000 150.400 C 48.708 150.872,49.087 151.600,49.624 151.600 C 49.831 151.600,50.000 151.240,50.000 150.800 C 50.000 149.956,49.418 149.724,49.000 150.400 M42.961 153.075 C 42.833 153.474,42.534 154.205,42.296 154.699 C 41.838 155.656,42.078 156.246,42.756 155.827 C 42.981 155.688,43.073 155.333,42.960 155.039 C 42.847 154.744,43.034 154.396,43.377 154.264 C 44.077 153.995,44.212 152.978,43.597 152.598 C 43.376 152.461,43.089 152.676,42.961 153.075 M49.878 152.656 C 49.558 152.975,49.919 153.600,50.424 153.600 C 50.631 153.600,50.800 153.330,50.800 153.000 C 50.800 152.381,50.328 152.205,49.878 152.656 M50.641 154.636 C 50.369 155.345,50.649 156.000,51.224 156.000 C 51.431 156.000,51.600 155.550,51.600 155.000 C 51.600 153.881,51.016 153.659,50.641 154.636 M41.473 156.660 C 41.047 157.086,41.152 158.400,41.613 158.400 C 42.204 158.400,42.576 157.216,42.126 156.766 C 41.918 156.558,41.624 156.510,41.473 156.660 M51.400 156.800 C 51.108 157.272,51.487 158.000,52.024 158.000 C 52.231 158.000,52.400 157.640,52.400 157.200 C 52.400 156.356,51.818 156.124,51.400 156.800 M52.270 158.961 C 52.045 159.549,52.303 160.000,52.867 160.000 C 53.050 160.000,53.200 159.640,53.200 159.200 C 53.200 158.283,52.591 158.126,52.270 158.961 M40.400 159.576 C 40.400 160.003,40.220 160.464,40.000 160.600 C 39.411 160.964,39.502 162.501,40.100 162.290 C 40.375 162.193,40.570 161.790,40.534 161.394 C 40.498 160.999,40.724 160.418,41.038 160.105 C 41.351 159.792,41.505 159.370,41.380 159.168 C 40.984 158.527,40.400 158.770,40.400 159.576 M52.984 160.825 C 52.840 161.059,53.017 161.577,53.378 161.975 C 53.738 162.374,53.981 162.925,53.917 163.200 C 53.853 163.475,54.025 163.783,54.300 163.883 C 54.892 164.100,54.981 162.959,54.400 162.600 C 54.180 162.464,54.000 161.913,54.000 161.376 C 54.000 160.372,53.449 160.073,52.984 160.825 M38.800 163.776 C 38.800 164.313,38.620 164.864,38.400 165.000 C 37.821 165.358,37.907 166.498,38.498 166.301 C 38.772 166.209,38.998 165.879,39.000 165.567 C 39.002 165.255,39.222 164.619,39.488 164.153 C 39.957 163.331,39.818 162.800,39.133 162.800 C 38.950 162.800,38.800 163.239,38.800 163.776 M54.622 164.764 C 54.333 165.232,54.776 166.400,55.243 166.400 C 55.439 166.400,55.600 165.950,55.600 165.400 C 55.600 164.412,55.058 164.059,54.622 164.764 M36.802 168.792 C 36.501 169.896,36.108 170.800,35.928 170.800 C 35.747 170.800,35.600 171.250,35.600 171.800 C 35.600 172.350,35.780 172.800,36.000 172.800 C 36.220 172.800,36.400 172.372,36.400 171.849 C 36.400 171.326,36.668 170.676,36.996 170.404 C 37.323 170.132,37.480 169.730,37.344 169.510 C 37.209 169.290,37.283 168.996,37.509 168.855 C 38.092 168.493,38.283 167.112,37.775 166.933 C 37.541 166.851,37.103 167.687,36.802 168.792 M55.466 167.068 C 55.319 167.215,55.476 167.642,55.816 168.017 C 56.155 168.393,56.405 168.857,56.369 169.050 C 56.231 169.808,56.419 170.400,56.800 170.400 C 57.020 170.400,57.200 169.950,57.200 169.400 C 57.200 168.850,57.020 168.400,56.800 168.400 C 56.580 168.400,56.400 168.040,56.400 167.600 C 56.400 166.803,55.974 166.560,55.466 167.068 M278.800 170.000 C 278.800 170.880,278.980 171.600,279.200 171.600 C 279.420 171.600,279.600 171.872,279.600 172.205 C 279.600 172.538,279.780 173.168,280.000 173.605 C 280.220 174.042,280.580 174.758,280.800 175.195 C 281.020 175.632,281.200 176.262,281.200 176.595 C 281.200 176.928,281.470 177.200,281.800 177.200 C 282.473 177.200,282.618 176.182,282.000 175.800 C 281.780 175.664,281.600 175.198,281.600 174.764 C 281.600 174.330,281.325 173.869,280.988 173.740 C 280.614 173.597,280.465 173.225,280.604 172.786 C 280.730 172.391,280.645 171.952,280.416 171.810 C 280.187 171.669,280.000 171.113,280.000 170.576 C 280.000 169.608,280.031 169.600,283.920 169.600 C 288.090 169.600,288.800 169.874,288.800 171.480 C 288.800 172.031,289.041 172.400,289.400 172.400 C 289.733 172.400,290.000 172.044,290.000 171.600 C 290.000 171.160,289.809 170.800,289.576 170.800 C 289.343 170.800,289.232 170.665,289.329 170.500 C 290.259 168.922,288.887 168.400,283.813 168.400 L 278.800 168.400 278.800 170.000 M304.229 169.661 C 303.471 171.182,303.404 172.535,304.100 172.293 C 304.375 172.197,304.579 171.687,304.553 171.160 C 304.485 169.756,304.959 169.613,309.700 169.606 C 313.618 169.601,314.968 169.943,313.400 170.545 C 313.070 170.671,312.800 171.231,312.800 171.787 C 312.800 172.344,312.599 172.800,312.353 172.800 C 312.108 172.800,311.998 173.148,312.109 173.574 C 312.226 174.022,312.077 174.438,311.756 174.562 C 311.450 174.679,311.200 175.231,311.200 175.787 C 311.200 176.344,311.020 176.800,310.800 176.800 C 310.580 176.800,310.400 177.149,310.400 177.576 C 310.400 178.003,310.220 178.464,310.000 178.600 C 309.780 178.736,309.600 179.199,309.600 179.629 C 309.600 180.059,309.441 180.723,309.247 181.105 C 308.916 181.755,308.579 182.553,307.600 185.000 C 307.380 185.550,306.999 186.433,306.753 186.962 C 306.303 187.930,306.526 188.800,307.224 188.800 C 307.431 188.800,307.600 188.260,307.600 187.600 C 307.600 186.940,307.780 186.400,308.000 186.400 C 308.220 186.400,308.400 186.051,308.400 185.624 C 308.400 185.197,308.580 184.736,308.800 184.600 C 309.020 184.464,309.200 183.913,309.200 183.376 C 309.200 182.839,309.380 182.400,309.600 182.400 C 309.820 182.400,310.000 182.128,310.000 181.795 C 310.000 181.462,310.180 180.832,310.400 180.395 C 310.620 179.958,310.980 179.242,311.200 178.805 C 311.420 178.368,311.600 177.648,311.600 177.205 C 311.600 176.762,311.780 176.400,312.000 176.400 C 312.220 176.400,312.400 175.961,312.400 175.424 C 312.400 174.887,312.580 174.336,312.800 174.200 C 313.020 174.064,313.200 173.603,313.200 173.176 C 313.200 172.749,313.380 172.400,313.600 172.400 C 313.820 172.400,314.000 172.076,314.000 171.680 C 314.000 171.284,314.195 170.765,314.433 170.527 C 315.803 169.157,313.989 168.400,309.333 168.400 L 304.859 168.400 304.229 169.661 M326.800 169.000 C 326.800 169.521,328.511 169.600,339.800 169.600 L 352.800 169.600 352.800 173.000 C 352.800 175.756,352.914 176.400,353.400 176.400 C 354.173 176.400,354.281 169.641,353.520 168.880 C 352.725 168.085,326.800 168.201,326.800 169.000 M368.900 168.998 C 368.001 170.020,368.193 202.653,369.100 202.890 C 369.760 203.063,369.794 202.109,369.691 186.337 L 369.583 169.600 373.787 169.600 C 377.884 169.600,377.991 169.623,377.978 170.500 C 377.970 170.995,377.946 177.700,377.924 185.400 C 377.902 193.100,377.851 200.170,377.811 201.110 C 377.765 202.184,377.898 202.768,378.169 202.677 C 378.831 202.457,379.013 170.545,378.358 169.322 C 377.748 168.182,369.857 167.912,368.900 168.998 M56.984 171.225 C 56.840 171.459,57.009 171.968,57.361 172.357 C 57.712 172.745,58.000 173.364,58.000 173.731 C 58.000 174.099,58.192 174.400,58.427 174.400 C 58.662 174.400,58.748 174.735,58.618 175.144 C 58.482 175.573,58.639 176.101,58.991 176.393 C 59.923 177.166,59.795 175.172,58.800 173.400 C 58.360 172.617,58.000 171.711,58.000 171.388 C 58.000 170.706,57.368 170.604,56.984 171.225 M302.800 173.400 C 302.800 174.076,302.983 174.406,303.300 174.300 C 303.575 174.208,303.800 173.803,303.800 173.400 C 303.800 172.997,303.575 172.592,303.300 172.500 C 302.983 172.394,302.800 172.724,302.800 173.400 M34.800 173.976 C 34.800 174.403,34.620 174.864,34.400 175.000 C 33.810 175.364,33.902 176.903,34.500 176.683 C 34.775 176.583,34.947 176.275,34.883 176.000 C 34.819 175.725,35.062 175.174,35.422 174.775 C 35.783 174.377,35.960 173.859,35.816 173.625 C 35.389 172.935,34.800 173.139,34.800 173.976 M289.778 173.635 C 289.631 173.874,289.710 174.270,289.955 174.515 C 290.200 174.760,290.400 175.380,290.400 175.893 C 290.400 176.405,290.669 176.928,290.997 177.054 C 291.391 177.206,291.516 177.594,291.365 178.198 C 291.238 178.701,291.330 179.233,291.568 179.380 C 291.805 179.527,292.000 180.087,292.000 180.624 C 292.000 181.225,292.231 181.600,292.600 181.600 C 293.269 181.600,293.426 180.187,292.800 179.800 C 292.580 179.664,292.400 179.201,292.400 178.771 C 292.400 178.341,292.192 177.587,291.938 177.095 C 290.942 175.169,290.800 174.783,290.800 174.005 C 290.800 173.138,290.216 172.927,289.778 173.635 M302.000 175.800 C 302.000 176.476,302.183 176.806,302.500 176.700 C 302.775 176.608,303.000 176.203,303.000 175.800 C 303.000 175.397,302.775 174.992,302.500 174.900 C 302.183 174.794,302.000 175.124,302.000 175.800 M335.200 179.213 C 335.200 181.379,335.342 182.080,335.817 182.262 C 336.645 182.580,336.639 182.608,336.477 179.300 C 336.275 175.189,335.200 175.115,335.200 179.213 M33.200 178.167 C 33.200 178.735,33.020 179.200,32.800 179.200 C 32.580 179.200,32.400 179.575,32.400 180.033 C 32.400 180.531,32.601 180.793,32.900 180.683 C 33.175 180.583,33.352 180.288,33.293 180.029 C 33.234 179.769,33.467 179.276,33.811 178.932 C 34.489 178.254,34.430 177.543,33.675 177.292 C 33.390 177.197,33.200 177.547,33.200 178.167 M59.478 177.456 C 59.158 177.775,59.519 178.400,60.024 178.400 C 60.231 178.400,60.400 178.130,60.400 177.800 C 60.400 177.181,59.928 177.005,59.478 177.456 M301.200 178.200 C 301.200 178.876,301.383 179.206,301.700 179.100 C 301.975 179.008,302.200 178.603,302.200 178.200 C 302.200 177.797,301.975 177.392,301.700 177.300 C 301.383 177.194,301.200 177.524,301.200 178.200 M282.000 178.567 C 282.000 179.135,282.180 179.600,282.400 179.600 C 282.620 179.600,282.800 180.039,282.800 180.576 C 282.800 181.113,282.980 181.664,283.200 181.800 C 283.420 181.936,283.600 182.380,283.600 182.786 C 283.600 183.424,284.092 184.602,285.650 187.695 C 285.843 188.077,286.000 188.752,286.000 189.195 C 286.000 189.638,286.180 190.000,286.400 190.000 C 286.620 190.000,286.800 190.360,286.800 190.800 C 286.800 191.672,287.386 191.869,287.833 191.147 C 287.986 190.898,287.834 190.539,287.493 190.348 C 287.122 190.140,286.958 189.683,287.083 189.206 C 287.216 188.696,287.054 188.319,286.633 188.157 C 286.220 187.999,286.061 187.638,286.204 187.186 C 286.330 186.791,286.245 186.352,286.016 186.210 C 285.787 186.069,285.600 185.598,285.600 185.164 C 285.600 184.730,285.350 184.279,285.044 184.162 C 284.739 184.044,284.571 183.632,284.672 183.246 C 284.773 182.860,284.584 182.319,284.252 182.043 C 283.919 181.767,283.753 181.267,283.882 180.930 C 284.011 180.594,283.870 180.167,283.569 179.981 C 283.267 179.794,283.016 179.243,283.010 178.756 C 283.005 178.269,282.775 177.794,282.500 177.702 C 282.186 177.596,282.000 177.917,282.000 178.567 M60.222 179.164 C 59.933 179.632,60.376 180.800,60.843 180.800 C 61.039 180.800,61.200 180.350,61.200 179.800 C 61.200 178.812,60.658 178.459,60.222 179.164 M300.400 180.600 C 300.400 181.276,300.583 181.606,300.900 181.500 C 301.175 181.408,301.400 181.003,301.400 180.600 C 301.400 180.197,301.175 179.792,300.900 179.700 C 300.583 179.594,300.400 179.924,300.400 180.600 M31.600 182.200 C 31.600 183.188,32.142 183.541,32.578 182.836 C 32.867 182.368,32.424 181.200,31.957 181.200 C 31.761 181.200,31.600 181.650,31.600 182.200 M60.962 181.661 C 60.806 181.914,60.975 182.339,61.339 182.605 C 61.703 182.871,62.000 183.473,62.000 183.944 C 62.000 184.415,62.180 184.800,62.400 184.800 C 62.620 184.800,62.800 184.350,62.800 183.800 C 62.800 183.250,62.620 182.800,62.400 182.800 C 62.180 182.800,62.000 182.440,62.000 182.000 C 62.000 181.124,61.413 180.932,60.962 181.661 M339.800 181.600 C 339.936 181.820,340.307 182.000,340.624 182.000 C 340.941 182.000,341.200 181.820,341.200 181.600 C 341.200 181.380,340.829 181.200,340.376 181.200 C 339.923 181.200,339.664 181.380,339.800 181.600 M350.400 181.776 C 350.400 182.093,350.580 182.464,350.800 182.600 C 351.020 182.736,351.200 184.187,351.200 185.824 L 351.200 188.800 343.649 188.800 C 334.860 188.800,335.240 188.617,335.333 192.801 L 335.400 195.800 344.669 195.907 L 353.938 196.015 354.338 197.107 C 354.557 197.708,354.751 197.921,354.768 197.580 C 354.786 197.239,354.575 196.475,354.300 195.883 L 353.800 194.806 345.100 194.803 L 336.400 194.800 336.400 192.408 L 336.400 190.017 344.300 189.908 L 352.200 189.800 352.316 186.056 C 352.415 182.842,352.330 182.234,351.716 181.768 C 350.785 181.062,350.400 181.065,350.400 181.776 M292.922 182.658 C 292.783 183.022,292.922 183.513,293.235 183.758 C 293.546 184.001,293.800 184.635,293.800 185.167 C 293.800 185.698,294.025 186.208,294.300 186.300 C 294.908 186.503,295.001 184.172,294.400 183.800 C 294.180 183.664,294.000 183.203,294.000 182.776 C 294.000 181.830,293.271 181.750,292.922 182.658 M299.600 182.800 C 299.600 183.316,299.803 183.599,300.100 183.500 C 300.375 183.408,300.600 183.093,300.600 182.800 C 300.600 182.507,300.375 182.192,300.100 182.100 C 299.803 182.001,299.600 182.284,299.600 182.800 M30.800 184.400 C 30.800 184.840,30.620 185.200,30.400 185.200 C 30.180 185.200,30.000 185.650,30.000 186.200 C 30.000 186.750,30.180 187.200,30.400 187.200 C 30.620 187.200,30.800 186.827,30.800 186.371 C 30.800 185.916,31.072 185.271,31.404 184.939 C 31.736 184.607,31.905 184.170,31.780 183.968 C 31.379 183.319,30.800 183.575,30.800 184.400 M46.265 184.428 C 45.532 185.476,45.722 186.000,46.836 186.000 C 47.875 186.000,48.269 184.897,47.503 184.132 C 46.962 183.591,46.830 183.622,46.265 184.428 M299.078 184.255 C 298.666 184.668,298.741 186.000,299.176 186.000 C 299.383 186.000,299.663 185.821,299.798 185.603 C 300.107 185.103,299.453 183.880,299.078 184.255 M62.562 185.661 C 62.406 185.914,62.598 186.355,62.989 186.641 C 63.386 186.932,63.598 187.429,63.468 187.768 C 63.243 188.353,63.855 189.079,64.244 188.689 C 64.506 188.427,63.473 185.200,63.126 185.200 C 62.973 185.200,62.719 185.407,62.562 185.661 M47.600 187.176 C 47.600 187.603,47.808 188.081,48.062 188.238 C 48.337 188.409,48.415 188.349,48.255 188.089 C 48.108 187.851,48.173 187.540,48.400 187.400 C 48.862 187.114,48.559 186.400,47.976 186.400 C 47.769 186.400,47.600 186.749,47.600 187.176 M298.278 186.655 C 297.866 187.068,297.941 188.400,298.376 188.400 C 298.583 188.400,298.863 188.221,298.998 188.003 C 299.307 187.503,298.653 186.280,298.278 186.655 M45.094 187.039 C 44.774 187.360,45.193 188.400,45.643 188.400 C 45.839 188.400,46.000 188.040,46.000 187.600 C 46.000 186.820,45.576 186.558,45.094 187.039 M294.622 187.164 C 294.333 187.632,294.776 188.800,295.243 188.800 C 295.439 188.800,295.600 188.350,295.600 187.800 C 295.600 186.812,295.058 186.459,294.622 187.164 M28.880 189.249 C 28.597 190.156,28.451 190.984,28.556 191.089 C 28.893 191.426,29.622 190.759,29.367 190.347 C 29.232 190.128,29.427 189.612,29.800 189.200 C 30.173 188.788,30.360 188.259,30.216 188.025 C 29.743 187.261,29.403 187.573,28.880 189.249 M48.572 189.646 C 48.733 190.171,48.961 191.005,49.079 191.500 C 49.309 192.464,49.789 192.665,50.216 191.975 C 50.360 191.741,50.183 191.223,49.822 190.825 C 49.462 190.426,49.219 189.875,49.283 189.600 C 49.347 189.325,49.148 189.008,48.839 188.896 C 48.412 188.741,48.348 188.920,48.572 189.646 M295.334 189.427 C 295.202 189.772,295.281 190.447,295.511 190.927 C 295.740 191.407,296.034 192.130,296.164 192.533 C 296.485 193.527,297.368 193.165,297.538 191.969 C 297.614 191.436,297.855 190.783,298.073 190.518 C 298.497 190.000,298.196 189.200,297.576 189.200 C 297.369 189.200,297.200 189.571,297.200 190.024 C 297.200 190.477,297.020 190.736,296.800 190.600 C 296.580 190.464,296.400 190.003,296.400 189.576 C 296.400 188.646,295.673 188.544,295.334 189.427 M305.758 189.500 C 305.639 189.885,305.378 190.508,305.177 190.884 C 304.977 191.260,304.910 191.822,305.029 192.133 C 305.149 192.443,304.966 192.804,304.623 192.936 C 304.280 193.067,304.000 193.453,304.000 193.793 C 304.000 194.133,303.841 194.723,303.647 195.105 C 302.378 197.600,302.262 198.022,302.721 198.481 C 303.318 199.078,303.666 198.718,303.741 197.426 C 303.773 196.862,303.935 196.400,304.100 196.400 C 304.265 196.400,304.400 196.040,304.400 195.600 C 304.400 195.160,304.580 194.800,304.800 194.800 C 305.020 194.800,305.200 194.350,305.200 193.800 C 305.200 193.250,305.380 192.800,305.600 192.800 C 305.820 192.800,306.000 192.350,306.000 191.800 C 306.000 191.250,306.180 190.800,306.400 190.800 C 306.620 190.800,306.800 190.350,306.800 189.800 C 306.800 188.657,306.083 188.451,305.758 189.500 M44.200 189.600 C 43.908 190.072,44.287 190.800,44.824 190.800 C 45.031 190.800,45.200 190.440,45.200 190.000 C 45.200 189.156,44.618 188.924,44.200 189.600 M64.189 189.618 C 64.047 189.847,64.172 190.326,64.466 190.682 C 64.760 191.038,65.014 191.615,65.031 191.965 C 65.082 193.016,66.051 195.200,66.466 195.200 C 66.679 195.200,66.744 195.545,66.611 195.966 C 66.477 196.388,66.555 196.848,66.784 196.990 C 67.013 197.131,67.200 197.602,67.200 198.036 C 67.200 198.470,67.475 198.931,67.812 199.060 C 68.199 199.208,68.336 199.572,68.184 200.049 C 68.030 200.537,68.173 200.892,68.589 201.051 C 68.955 201.192,69.183 201.650,69.117 202.112 C 69.053 202.560,69.225 203.002,69.500 203.096 C 70.101 203.301,70.154 202.294,69.600 201.195 C 69.380 200.758,69.020 200.042,68.800 199.605 C 68.580 199.168,68.400 198.448,68.400 198.005 C 68.400 197.562,68.220 197.200,68.000 197.200 C 67.780 197.200,67.600 196.928,67.600 196.595 C 67.600 196.262,67.441 195.677,67.247 195.295 C 67.052 194.913,66.671 194.060,66.400 193.400 C 66.129 192.740,65.748 191.887,65.553 191.505 C 65.359 191.123,65.200 190.448,65.200 190.005 C 65.200 189.148,64.618 188.924,64.189 189.618 M43.502 191.700 C 43.263 192.349,43.565 193.200,44.033 193.200 C 44.235 193.200,44.400 192.750,44.400 192.200 C 44.400 191.157,43.820 190.834,43.502 191.700 M27.600 192.576 C 27.600 193.113,27.420 193.664,27.200 193.800 C 26.980 193.936,26.800 194.397,26.800 194.824 C 26.800 195.251,26.620 195.600,26.400 195.600 C 26.180 195.600,26.000 196.065,26.000 196.633 C 26.000 197.284,26.185 197.604,26.500 197.496 C 26.775 197.402,26.943 196.936,26.874 196.460 C 26.799 195.944,27.010 195.494,27.397 195.346 C 27.775 195.201,27.949 194.843,27.813 194.491 C 27.685 194.157,27.873 193.562,28.230 193.167 C 28.586 192.773,28.760 192.259,28.616 192.025 C 28.151 191.273,27.600 191.572,27.600 192.576 M287.600 193.000 C 287.600 193.676,287.783 194.006,288.100 193.900 C 288.375 193.808,288.600 193.403,288.600 193.000 C 288.600 192.597,288.375 192.192,288.100 192.100 C 287.783 191.994,287.600 192.324,287.600 193.000 M50.000 194.000 C 50.000 194.516,50.203 194.799,50.500 194.700 C 50.775 194.608,51.000 194.293,51.000 194.000 C 51.000 193.707,50.775 193.392,50.500 193.300 C 50.203 193.201,50.000 193.484,50.000 194.000 M42.754 193.900 C 42.729 194.065,42.735 194.487,42.769 194.839 C 42.802 195.190,42.571 195.692,42.256 195.953 C 41.941 196.215,41.774 196.781,41.887 197.210 C 42.159 198.251,42.800 197.806,42.800 196.576 C 42.800 196.039,42.980 195.600,43.200 195.600 C 43.420 195.600,43.600 195.150,43.600 194.600 C 43.600 193.720,42.874 193.119,42.754 193.900 M288.400 195.176 C 288.400 195.603,288.580 196.064,288.800 196.200 C 289.020 196.336,289.200 196.797,289.200 197.224 C 289.200 197.651,289.369 198.000,289.576 198.000 C 290.216 198.000,290.446 197.268,290.043 196.516 C 289.831 196.122,289.561 195.485,289.442 195.100 C 289.149 194.154,288.400 194.209,288.400 195.176 M50.800 196.200 C 50.800 196.876,50.983 197.206,51.300 197.100 C 51.575 197.008,51.800 196.603,51.800 196.200 C 51.800 195.797,51.575 195.392,51.300 195.300 C 50.983 195.194,50.800 195.524,50.800 196.200 M51.666 198.455 C 51.740 198.975,51.980 199.355,52.200 199.300 C 52.790 199.152,52.686 197.895,52.066 197.689 C 51.700 197.567,51.575 197.808,51.666 198.455 M25.200 198.776 C 25.200 199.203,25.020 199.664,24.800 199.800 C 24.212 200.164,24.303 201.701,24.900 201.492 C 25.175 201.396,25.343 201.004,25.274 200.622 C 25.205 200.239,25.457 199.700,25.835 199.424 C 26.213 199.147,26.394 198.714,26.238 198.461 C 25.792 197.740,25.200 197.920,25.200 198.776 M41.110 198.623 C 40.756 198.978,41.252 200.415,41.645 200.172 C 42.095 199.894,42.113 198.400,41.667 198.400 C 41.483 198.400,41.233 198.500,41.110 198.623 M290.000 199.400 C 290.000 200.076,290.183 200.406,290.500 200.300 C 290.775 200.208,291.000 199.803,291.000 199.400 C 291.000 198.997,290.775 198.592,290.500 198.500 C 290.183 198.394,290.000 198.724,290.000 199.400 M354.025 200.567 C 354.011 201.868,354.119 202.814,354.265 202.668 C 354.715 202.218,354.808 200.088,354.420 199.120 C 354.130 198.397,354.045 198.707,354.025 200.567 M301.600 200.176 C 301.600 200.713,301.420 201.264,301.200 201.400 C 300.582 201.782,300.727 202.800,301.400 202.800 C 301.730 202.800,302.000 202.451,302.000 202.024 C 302.000 201.597,302.180 201.136,302.400 201.000 C 303.026 200.613,302.869 199.200,302.200 199.200 C 301.831 199.200,301.600 199.575,301.600 200.176 M52.400 200.605 C 52.400 200.938,52.567 201.523,52.771 201.905 C 52.975 202.287,53.243 202.926,53.368 203.325 C 53.492 203.724,53.776 203.939,53.997 203.802 C 54.611 203.422,54.482 202.863,53.608 202.114 C 53.084 201.666,52.966 201.344,53.260 201.163 C 53.503 201.013,53.579 200.689,53.428 200.445 C 53.030 199.801,52.400 199.899,52.400 200.605 M290.800 201.200 C 290.800 201.716,291.003 201.999,291.300 201.900 C 291.575 201.808,291.800 201.493,291.800 201.200 C 291.800 200.907,291.575 200.592,291.300 200.500 C 291.003 200.401,290.800 200.684,290.800 201.200 M40.157 201.433 C 40.291 201.781,40.400 202.151,40.400 202.256 C 40.400 202.361,40.580 202.336,40.800 202.200 C 41.437 201.806,41.263 200.800,40.557 200.800 C 40.135 200.800,39.998 201.018,40.157 201.433 M23.600 202.800 C 23.600 203.316,23.803 203.599,24.100 203.500 C 24.375 203.408,24.600 203.093,24.600 202.800 C 24.600 202.507,24.375 202.192,24.100 202.100 C 23.803 202.001,23.600 202.284,23.600 202.800 M39.400 203.200 C 39.108 203.672,39.487 204.400,40.024 204.400 C 40.231 204.400,40.400 204.040,40.400 203.600 C 40.400 202.756,39.818 202.524,39.400 203.200 M343.007 203.188 C 342.839 203.460,344.139 203.600,346.843 203.600 C 349.093 203.600,350.825 203.492,350.693 203.359 C 350.246 202.913,343.274 202.757,343.007 203.188 M69.784 204.025 C 69.640 204.259,69.817 204.777,70.178 205.175 C 70.538 205.574,70.781 206.125,70.717 206.400 C 70.653 206.675,70.825 206.982,71.100 207.083 C 71.692 207.300,71.781 206.159,71.200 205.800 C 70.980 205.664,70.800 205.113,70.800 204.576 C 70.800 203.572,70.249 203.273,69.784 204.025 M22.800 205.200 C 22.800 205.640,22.961 206.000,23.157 206.000 C 23.607 206.000,24.026 204.960,23.706 204.639 C 23.224 204.158,22.800 204.420,22.800 205.200 M54.000 205.176 C 54.000 205.603,54.161 206.052,54.358 206.174 C 54.788 206.440,55.297 205.281,54.978 204.764 C 54.584 204.126,54.000 204.372,54.000 205.176 M38.641 205.436 C 38.369 206.145,38.649 206.800,39.224 206.800 C 39.431 206.800,39.600 206.350,39.600 205.800 C 39.600 204.681,39.016 204.459,38.641 205.436 M22.000 206.772 C 22.000 207.581,21.861 207.963,20.862 209.895 C 20.322 210.940,20.257 212.000,20.733 212.000 C 21.368 212.000,21.591 211.471,21.171 210.965 C 20.858 210.588,20.971 210.336,21.605 209.997 C 22.126 209.719,22.372 209.303,22.232 208.940 C 22.106 208.610,22.280 208.063,22.619 207.724 C 23.290 207.053,23.227 206.342,22.475 206.092 C 22.209 206.003,22.000 206.302,22.000 206.772 M54.800 207.600 C 54.800 208.116,55.003 208.399,55.300 208.300 C 55.575 208.208,55.800 207.893,55.800 207.600 C 55.800 207.307,55.575 206.992,55.300 206.900 C 55.003 206.801,54.800 207.084,54.800 207.600 M37.752 207.781 C 37.629 208.100,37.646 208.550,37.788 208.781 C 38.254 209.535,38.800 209.221,38.800 208.200 C 38.800 207.116,38.113 206.841,37.752 207.781 M71.426 207.957 C 71.124 208.447,71.580 209.600,72.076 209.600 C 72.291 209.600,72.395 209.815,72.307 210.078 C 72.083 210.750,73.025 213.342,73.558 213.519 C 74.135 213.712,74.124 212.628,73.538 211.495 C 72.571 209.625,72.400 209.194,72.400 208.629 C 72.400 207.911,71.738 207.454,71.426 207.957 M55.600 209.800 C 55.600 210.788,56.142 211.141,56.578 210.436 C 56.867 209.968,56.424 208.800,55.957 208.800 C 55.761 208.800,55.600 209.250,55.600 209.800 M37.022 209.964 C 36.703 210.481,37.212 211.640,37.642 211.374 C 38.118 211.080,38.103 209.600,37.624 209.600 C 37.417 209.600,37.146 209.764,37.022 209.964 M56.400 212.200 C 56.400 212.750,56.561 213.200,56.757 213.200 C 57.224 213.200,57.667 212.032,57.378 211.564 C 56.942 210.859,56.400 211.212,56.400 212.200 M36.310 212.223 C 35.956 212.578,36.452 214.015,36.845 213.772 C 37.295 213.494,37.313 212.000,36.867 212.000 C 36.683 212.000,36.433 212.100,36.310 212.223 M19.600 213.176 C 19.600 213.603,19.420 214.064,19.200 214.200 C 18.612 214.564,18.703 216.101,19.300 215.892 C 19.575 215.796,19.743 215.404,19.674 215.022 C 19.605 214.639,19.857 214.100,20.235 213.824 C 20.613 213.547,20.794 213.114,20.638 212.861 C 20.192 212.140,19.600 212.320,19.600 213.176 M57.200 214.567 C 57.200 215.135,57.380 215.600,57.600 215.600 C 57.820 215.600,58.000 215.330,58.000 215.000 C 58.000 214.670,58.014 214.270,58.030 214.110 C 58.047 213.950,57.867 213.755,57.630 213.677 C 57.394 213.598,57.200 213.998,57.200 214.567 M73.760 214.465 C 73.598 214.727,73.853 215.238,74.345 215.636 C 74.869 216.060,75.052 216.445,74.802 216.599 C 74.338 216.885,74.639 217.600,75.224 217.600 C 75.726 217.600,75.707 216.113,75.200 215.800 C 74.980 215.664,74.800 215.203,74.800 214.776 C 74.800 213.918,74.208 213.740,73.760 214.465 M35.553 214.700 C 35.527 214.865,35.534 215.158,35.569 215.350 C 35.605 215.543,35.352 216.012,35.007 216.392 C 34.663 216.773,34.494 217.379,34.632 217.740 C 34.952 218.574,35.600 218.197,35.600 217.176 C 35.600 216.749,35.780 216.400,36.000 216.400 C 36.220 216.400,36.400 215.950,36.400 215.400 C 36.400 214.519,35.676 213.921,35.553 214.700 M58.134 216.228 C 57.991 216.601,58.082 217.240,58.337 217.648 C 58.592 218.055,58.800 218.662,58.800 218.995 C 58.800 219.709,59.431 219.797,59.838 219.139 C 59.994 218.886,59.808 218.449,59.425 218.169 C 58.971 217.837,58.816 217.381,58.980 216.863 C 59.291 215.883,58.496 215.285,58.134 216.228 M18.184 217.033 C 18.051 217.455,17.775 218.113,17.571 218.495 C 17.083 219.409,17.098 220.400,17.600 220.400 C 17.981 220.400,18.169 219.808,18.031 219.050 C 17.995 218.857,18.276 218.358,18.654 217.940 C 19.170 217.371,19.227 217.067,18.884 216.724 C 18.540 216.380,18.366 216.458,18.184 217.033 M75.366 218.455 C 75.210 218.708,75.490 219.215,75.997 219.598 C 76.613 220.062,76.759 220.378,76.448 220.570 C 75.949 220.879,76.212 221.600,76.824 221.600 C 77.031 221.600,77.200 221.150,77.200 220.600 C 77.200 220.050,77.020 219.600,76.800 219.600 C 76.580 219.600,76.400 219.240,76.400 218.800 C 76.400 217.927,75.813 217.731,75.366 218.455 M33.800 219.200 C 33.508 219.672,33.887 220.400,34.424 220.400 C 34.631 220.400,34.800 220.040,34.800 219.600 C 34.800 218.756,34.218 218.524,33.800 219.200 M59.600 221.000 C 59.600 221.988,60.142 222.341,60.578 221.636 C 60.867 221.168,60.424 220.000,59.957 220.000 C 59.761 220.000,59.600 220.450,59.600 221.000 M16.400 221.205 C 16.400 221.983,16.258 222.369,15.262 224.295 C 14.654 225.473,14.673 226.510,15.300 226.296 C 15.575 226.202,15.747 225.760,15.683 225.312 C 15.616 224.845,15.846 224.391,16.225 224.246 C 16.632 224.090,16.788 223.747,16.635 223.346 C 16.489 222.967,16.665 222.495,17.058 222.207 C 17.457 221.915,17.628 221.449,17.478 221.058 C 17.124 220.137,16.400 220.236,16.400 221.205 M32.952 221.381 C 32.829 221.700,32.846 222.150,32.988 222.381 C 33.454 223.135,34.000 222.821,34.000 221.800 C 34.000 220.716,33.313 220.441,32.952 221.381 M76.922 222.658 C 76.772 223.049,76.943 223.515,77.342 223.807 C 77.713 224.078,77.909 224.572,77.780 224.909 C 77.651 225.244,77.739 225.639,77.976 225.785 C 78.624 226.185,78.992 224.800,78.463 223.952 C 78.208 223.545,78.000 222.938,78.000 222.605 C 78.000 221.795,77.239 221.832,76.922 222.658 M60.400 223.400 C 60.400 223.950,60.561 224.400,60.757 224.400 C 61.224 224.400,61.667 223.232,61.378 222.764 C 60.942 222.059,60.400 222.412,60.400 223.400 M32.241 223.836 C 31.969 224.545,32.249 225.200,32.824 225.200 C 33.031 225.200,33.200 224.750,33.200 224.200 C 33.200 223.081,32.616 222.859,32.241 223.836 M61.200 225.800 C 61.200 226.350,61.380 226.800,61.600 226.800 C 61.820 226.800,62.000 227.160,62.000 227.600 C 62.000 228.044,62.267 228.400,62.600 228.400 C 63.287 228.400,63.364 227.895,62.829 226.895 C 62.625 226.513,62.361 225.885,62.242 225.500 C 61.917 224.451,61.200 224.657,61.200 225.800 M31.479 225.900 C 31.119 226.542,30.799 228.400,31.048 228.400 C 31.502 228.400,32.374 227.032,32.387 226.300 C 32.400 225.600,31.796 225.334,31.479 225.900 M78.564 227.002 C 78.421 227.572,78.404 228.137,78.525 228.259 C 78.917 228.650,79.600 227.977,79.600 227.200 C 79.600 226.006,78.850 225.863,78.564 227.002 " stroke="none" fill="#bcacdc" fill-rule="evenodd"></path></g></svg>