<?xml version="1.0" encoding="utf-8"?>
<!-- Generator: Adobe Illustrator 27.5.0, SVG Export Plug-In . SVG Version: 6.00 Build 0)  -->
<svg version="1.1" xmlns="http://www.w3.org/2000/svg" xmlns:xlink="http://www.w3.org/1999/xlink" x="0px" y="0px"
	 viewBox="0 0 500 500" style="enable-background:new 0 0 500 500;" xml:space="preserve">
<g id="Background_Simple">
	<g>
		<path style="fill:#C6FF00;" d="M415.829,230.1c-2.958-33.833-14.051-66.832-33.627-95.781
			C351.465,88.867,301.288,64.3,246.707,77.698C195.101,90.364,181.997,146.244,139,171c-33,19-83,50-74.999,105.004
			c2.608,17.924,14.477,31.019,30.758,38.368c22.265,10.05,53.396,5.959,73.241,20.627c23,17,42,41,92.001,59
			c39.545,14.235,84.152-2.803,114.038-29.752C410.823,331.08,419.981,277.593,415.829,230.1z"/>
		<path style="opacity:0.7;fill:#FFFFFF;" d="M415.829,230.1c-2.958-33.833-14.051-66.832-33.627-95.781
			C351.465,88.867,301.288,64.3,246.707,77.698C195.101,90.364,181.997,146.244,139,171c-33,19-83,50-74.999,105.004
			c2.608,17.924,14.477,31.019,30.758,38.368c22.265,10.05,53.396,5.959,73.241,20.627c23,17,42,41,92.001,59
			c39.545,14.235,84.152-2.803,114.038-29.752C410.823,331.08,419.981,277.593,415.829,230.1z"/>
	</g>
</g>
<g id="Shadow">
	<g>
		<path style="fill:#C6FF00;" d="M430.438,410.524l-6.799-6.721c5.665-8.201,3.224-14.244-1.639-19.802
			c-2.929-3.347-10.592-2.84-20.044-1.634L350,331l-8,3c0,0,21.642,26.346,41.914,50.583c-8.428,0.746-16.897,0.756-23.914-1.583
			c-21-7-38-22-38-22c-24,2,12,41,26,52c28.038,22.03,42.879,18.03,62.755,3.181c3.58,4.079,6.159,6.889,7.245,7.819
			c0.07,0.06,0.14,0.119,0.211,0.178C427.166,431.616,438.716,418.708,430.438,410.524z"/>
		<path style="opacity:0.5;fill:#FFFFFF;" d="M430.438,410.524l-6.799-6.721c5.665-8.201,3.224-14.244-1.639-19.802
			c-2.929-3.347-10.592-2.84-20.044-1.634L350,331l-8,3c0,0,21.642,26.346,41.914,50.583c-8.428,0.746-16.897,0.756-23.914-1.583
			c-21-7-38-22-38-22c-24,2,11.238,42.046,26,52c32.955,22.223,42.879,18.03,62.755,3.181c3.58,4.079,6.159,6.889,7.245,7.819
			c0.07,0.06,0.14,0.119,0.211,0.178C427.166,431.616,438.716,418.708,430.438,410.524z"/>
	</g>
</g>
<g id="Plants">
	<g>
		<g>
			<path style="fill:#C6FF00;" d="M112.713,229.308c0,0,26.3,30.4,26.442,68.06c0.143,37.659-25.926,68.317-25.926,68.317
				s-26.3-30.4-26.442-68.06C86.644,259.966,112.713,229.308,112.713,229.308z"/>
			<path style="fill:#C6FF00;" d="M170.499,315.451c0,0,0.164,24.749-13.127,40.481c-13.291,15.733-35.004,16.491-35.004,16.491
				s-0.164-24.749,13.127-40.481C148.786,316.209,170.499,315.451,170.499,315.451z"/>
			<path style="fill:#C6FF00;" d="M56.266,313.162c0,0-1.091,24.719,11.598,41.083c12.689,16.365,34.354,18.178,34.354,18.178
				s1.091-24.719-11.598-41.083C77.931,314.976,56.266,313.162,56.266,313.162z"/>
		</g>
		<g style="opacity:0.5;">
			<path style="fill:#FFFFFF;" d="M112.713,229.308c0,0,26.3,30.4,26.442,68.06c0.143,37.659-25.926,68.317-25.926,68.317
				s-26.3-30.4-26.442-68.06C86.644,259.966,112.713,229.308,112.713,229.308z"/>
			<path style="fill:#FFFFFF;" d="M170.499,315.451c0,0,0.164,24.749-13.127,40.481c-13.291,15.733-35.004,16.491-35.004,16.491
				s-0.164-24.749,13.127-40.481C148.786,316.209,170.499,315.451,170.499,315.451z"/>
			<path style="fill:#FFFFFF;" d="M56.266,313.162c0,0-1.091,24.719,11.598,41.083c12.689,16.365,34.354,18.178,34.354,18.178
				s1.091-24.719-11.598-41.083C77.931,314.976,56.266,313.162,56.266,313.162z"/>
		</g>
		<g>
			<path style="fill:#FFFFFF;" d="M96.574,330.89l0.001-0.001c0.233-0.338,0.663-0.397,0.959-0.132l13.816,12.352
				c0.45,0.402,1.108,0.035,1.105-0.616l-0.108-28.483c-0.001-0.222-0.085-0.433-0.231-0.58l-20.753-20.92
				c-0.283-0.285-0.309-0.778-0.059-1.1l0,0c0.25-0.321,0.682-0.351,0.964-0.067l18.926,19.078c0.442,0.446,1.139,0.086,1.136-0.586
				l-0.118-31.34c-0.001-0.225-0.087-0.438-0.236-0.585l-13.729-13.537c-0.285-0.281-0.316-0.773-0.07-1.098l0.001-0.001
				c0.247-0.325,0.679-0.361,0.964-0.079l11.924,11.757c0.444,0.437,1.133,0.076,1.131-0.592l-0.167-44.269
				c-0.002-0.43,0.303-0.78,0.68-0.782h0.001c0.377-0.002,0.685,0.345,0.686,0.775l0.248,65.618
				c0.003,0.764,0.869,1.067,1.247,0.436l15.407-25.665c0.213-0.355,0.638-0.446,0.95-0.203l0.002,0.001
				c0.311,0.243,0.391,0.727,0.178,1.082l-17.653,29.406l-0.113-0.088l0.101,26.895c0.003,0.672,0.701,1.025,1.14,0.576
				l18.782-19.239c0.281-0.287,0.712-0.261,0.965,0.058l0.001,0.001c0.253,0.32,0.23,0.812-0.051,1.1l-20.818,21.324l-0.004-0.006
				l0.126,33.523c0.002,0.43-0.303,0.78-0.68,0.782h-0.001c-0.377,0.002-0.685-0.345-0.687-0.775l-0.069-18.443
				c-0.001-0.238-0.097-0.462-0.261-0.609l-15.52-13.875C96.393,331.718,96.341,331.228,96.574,330.89z"/>
			<path style="fill:#FFFFFF;" d="M57.045,314.794L57.045,314.794c0.282-0.287,0.714-0.26,0.966,0.061l20.844,26.549
				c0.447,0.569,1.271,0.141,1.187-0.617l-1.716-15.479c-0.047-0.426,0.217-0.816,0.592-0.87l0,0
				c0.375-0.054,0.717,0.248,0.764,0.675l2.236,20.168l-0.017,0.002l8.14,10.368c0.393,0.501,1.122,0.237,1.188-0.431l1.474-14.803
				c0.043-0.427,0.381-0.734,0.756-0.686l0.001,0c0.375,0.049,0.644,0.434,0.602,0.861l-1.749,17.563
				c-0.022,0.221,0.04,0.441,0.17,0.607l10.889,13.869c0.252,0.32,0.228,0.813-0.054,1.099l-0.001,0.001
				c-0.281,0.287-0.713,0.26-0.965-0.061l-5.882-7.491c-0.139-0.177-0.342-0.272-0.55-0.258l-10.852,0.746
				c-0.377,0.026-0.7-0.301-0.723-0.73v-0.001c-0.023-0.429,0.264-0.799,0.641-0.824l8.692-0.598
				c0.57-0.039,0.849-0.811,0.468-1.296l-8.702-11.083c-0.13-0.165-0.315-0.26-0.51-0.259l-15.522,0.02
				c-0.377,0-0.683-0.347-0.684-0.777v-0.001c-0.001-0.43,0.305-0.78,0.682-0.78l13.082-0.017c0.59-0.001,0.902-0.796,0.508-1.298
				l-9.604-12.232c-0.132-0.168-0.32-0.262-0.518-0.259l-9.979,0.136c-0.377,0.005-0.687-0.339-0.691-0.768v-0.001
				c-0.005-0.43,0.297-0.784,0.675-0.789l7.591-0.104c0.587-0.008,0.892-0.799,0.501-1.298l-13.986-17.813
				C56.739,315.574,56.763,315.081,57.045,314.794z"/>
			<path style="fill:#FFFFFF;" d="M127.774,350.284l0.002,0c0.374-0.058,0.718,0.241,0.769,0.667l1.171,9.832
				c0.077,0.645,0.773,0.904,1.17,0.435l9.049-10.711c0.135-0.16,0.204-0.378,0.189-0.599l-1.176-17.635
				c-0.029-0.429,0.253-0.803,0.63-0.835l0.002,0c0.376-0.033,0.705,0.289,0.733,0.717l0.991,14.862
				c0.045,0.671,0.764,0.966,1.174,0.481l9.99-11.825c0.137-0.162,0.206-0.383,0.189-0.607l-0.864-11.328
				c-0.033-0.428,0.245-0.806,0.621-0.843h0c0.376-0.037,0.708,0.28,0.74,0.708l0.657,8.618c0.051,0.666,0.766,0.954,1.173,0.472
				l14.548-17.22c0.262-0.31,0.695-0.319,0.966-0.021l0,0c0.272,0.298,0.28,0.791,0.018,1.1l-21.681,25.664
				c-0.465,0.55-0.029,1.455,0.628,1.303l13.421-3.105c0.37-0.085,0.73,0.186,0.806,0.607l0,0.002
				c0.076,0.422-0.163,0.833-0.534,0.919l-17.485,4.045l-0.004-0.022l-8.467,10.023c-0.409,0.484-0.124,1.292,0.466,1.318
				l13.067,0.57c0.377,0.017,0.672,0.379,0.657,0.808l0,0.002c-0.015,0.43-0.332,0.764-0.709,0.748l-15.504-0.677
				c-0.195-0.008-0.383,0.078-0.518,0.238l-11.325,13.406c-0.262,0.31-0.695,0.319-0.967,0.021v0c-0.272-0.298-0.28-0.791-0.018-1.1
				l6.117-7.24c0.145-0.171,0.213-0.409,0.185-0.645l-1.462-12.276C127.139,350.734,127.401,350.342,127.774,350.284z"/>
		</g>
	</g>
</g>
<g id="Check_List">
	<g>
		<path style="fill:#263238;stroke:#000000;stroke-miterlimit:10;" d="M377.202,329.425L228.65,371.238
			c-3.124,0.879-6.923-0.686-8.485-3.496l-112.659-202.74c-1.562-2.811-0.295-5.802,2.83-6.681l148.552-41.813
			c3.125-0.88,6.924,0.686,8.485,3.496l112.659,202.74C381.594,325.555,380.327,328.546,377.202,329.425z"/>
		<path style="fill:#884849;" d="M226.561,362.347c0,0,85.841-20.415,143.62-40.424L226.561,362.347z"/>
		<polygon style="fill:#FFFFFF;stroke:#263238;stroke-miterlimit:10;" points="370.181,321.922 226.561,362.347 115.472,162.432 
			259.092,122.008 		"/>
		<g>
			<g>
				<line style="fill:#FFFFFF;stroke:#263238;stroke-miterlimit:10;" x1="216.552" y1="164.346" x2="227.704" y2="161.207"/>
				<line style="fill:#FFFFFF;stroke:#263238;stroke-miterlimit:10;" x1="139.207" y1="186.117" x2="207.918" y2="166.777"/>
				<line style="fill:#FFFFFF;stroke:#263238;stroke-miterlimit:10;" x1="204.319" y1="176.77" x2="232.02" y2="168.973"/>
				<line style="fill:#FFFFFF;stroke:#263238;stroke-miterlimit:10;" x1="161.869" y1="188.719" x2="196.765" y2="178.896"/>
				<line style="fill:#FFFFFF;stroke:#263238;stroke-miterlimit:10;" x1="143.523" y1="193.883" x2="155.394" y2="190.541"/>
				<line style="fill:#FFFFFF;stroke:#263238;stroke-miterlimit:10;" x1="182.374" y1="191.928" x2="236.335" y2="176.739"/>
				<line style="fill:#FFFFFF;stroke:#263238;stroke-miterlimit:10;" x1="147.838" y1="201.648" x2="170.502" y2="195.269"/>
			</g>
			<path style="fill:#FFFFFF;stroke:#263238;stroke-miterlimit:10;" d="M266.555,158.504c-2.582-4.646-8.863-7.234-14.028-5.781
				c-5.166,1.454-7.26,6.399-4.678,11.046c2.582,4.646,8.863,7.234,14.028,5.78C267.043,168.096,269.137,163.151,266.555,158.504z"
				/>
		</g>
		<g>
			<g>
				<line style="fill:#FFFFFF;stroke:#263238;stroke-miterlimit:10;" x1="169.599" y1="217.601" x2="158.447" y2="220.74"/>
				<line style="fill:#FFFFFF;stroke:#263238;stroke-miterlimit:10;" x1="246.944" y1="195.831" x2="178.233" y2="215.171"/>
				<line style="fill:#FFFFFF;stroke:#263238;stroke-miterlimit:10;" x1="190.463" y1="220.709" x2="162.762" y2="228.506"/>
				<line style="fill:#FFFFFF;stroke:#263238;stroke-miterlimit:10;" x1="232.913" y1="208.761" x2="198.017" y2="218.583"/>
				<line style="fill:#FFFFFF;stroke:#263238;stroke-miterlimit:10;" x1="251.26" y1="203.597" x2="239.388" y2="206.938"/>
				<line style="fill:#FFFFFF;stroke:#263238;stroke-miterlimit:10;" x1="221.039" y1="221.083" x2="167.078" y2="236.272"/>
				<line style="fill:#FFFFFF;stroke:#263238;stroke-miterlimit:10;" x1="255.575" y1="211.363" x2="232.911" y2="217.742"/>
			</g>
			<path style="fill:#FFFFFF;stroke:#263238;stroke-miterlimit:10;" d="M285.795,193.128c-2.582-4.646-8.863-7.234-14.029-5.78
				c-5.166,1.454-7.26,6.399-4.678,11.046c2.582,4.646,8.863,7.234,14.028,5.78C286.283,202.719,288.377,197.774,285.795,193.128z"
				/>
		</g>
		<g>
			<g>
				<line style="fill:#FFFFFF;stroke:#263238;stroke-miterlimit:10;" x1="255.032" y1="233.593" x2="266.184" y2="230.454"/>
				<line style="fill:#FFFFFF;stroke:#263238;stroke-miterlimit:10;" x1="177.686" y1="255.363" x2="246.398" y2="236.023"/>
				<line style="fill:#FFFFFF;stroke:#263238;stroke-miterlimit:10;" x1="242.799" y1="246.017" x2="270.499" y2="238.22"/>
				<line style="fill:#FFFFFF;stroke:#263238;stroke-miterlimit:10;" x1="200.349" y1="257.965" x2="235.244" y2="248.143"/>
				<line style="fill:#FFFFFF;stroke:#263238;stroke-miterlimit:10;" x1="182.002" y1="263.129" x2="193.873" y2="259.788"/>
				<line style="fill:#FFFFFF;stroke:#263238;stroke-miterlimit:10;" x1="220.853" y1="261.175" x2="274.815" y2="245.986"/>
				<line style="fill:#FFFFFF;stroke:#263238;stroke-miterlimit:10;" x1="186.317" y1="270.895" x2="208.981" y2="264.516"/>
			</g>
			<path style="fill:#FFFFFF;stroke:#263238;stroke-miterlimit:10;" d="M305.035,227.751c-2.582-4.646-8.863-7.235-14.028-5.781
				c-5.166,1.454-7.26,6.399-4.678,11.046c2.582,4.646,8.863,7.234,14.028,5.781C305.522,237.343,307.617,232.398,305.035,227.751z"
				/>
		</g>
		<g>
			<g>
				<line style="fill:#FFFFFF;stroke:#263238;stroke-miterlimit:10;" x1="208.078" y1="286.848" x2="196.926" y2="289.987"/>
				<line style="fill:#FFFFFF;stroke:#263238;stroke-miterlimit:10;" x1="285.423" y1="265.078" x2="216.712" y2="284.418"/>
				<line style="fill:#FFFFFF;stroke:#263238;stroke-miterlimit:10;" x1="228.942" y1="289.956" x2="201.242" y2="297.753"/>
				<line style="fill:#FFFFFF;stroke:#263238;stroke-miterlimit:10;" x1="271.392" y1="278.008" x2="236.497" y2="287.83"/>
				<line style="fill:#FFFFFF;stroke:#263238;stroke-miterlimit:10;" x1="289.739" y1="272.844" x2="277.867" y2="276.185"/>
				<line style="fill:#FFFFFF;stroke:#263238;stroke-miterlimit:10;" x1="259.519" y1="290.33" x2="205.557" y2="305.519"/>
				<line style="fill:#FFFFFF;stroke:#263238;stroke-miterlimit:10;" x1="294.054" y1="280.61" x2="271.391" y2="286.989"/>
			</g>
			<path style="fill:#FFFFFF;stroke:#263238;stroke-miterlimit:10;" d="M324.275,262.375c-2.582-4.647-8.863-7.235-14.029-5.781
				c-5.166,1.454-7.26,6.399-4.678,11.046c2.582,4.646,8.863,7.234,14.028,5.78C324.762,271.966,326.856,267.021,324.275,262.375z"
				/>
		</g>
		<g>
			<g>
				<line style="fill:#FFFFFF;stroke:#263238;stroke-miterlimit:10;" x1="293.511" y1="302.84" x2="304.663" y2="299.701"/>
				<line style="fill:#FFFFFF;stroke:#263238;stroke-miterlimit:10;" x1="216.166" y1="324.61" x2="284.877" y2="305.27"/>
				<line style="fill:#FFFFFF;stroke:#263238;stroke-miterlimit:10;" x1="281.278" y1="315.264" x2="308.978" y2="307.467"/>
				<line style="fill:#FFFFFF;stroke:#263238;stroke-miterlimit:10;" x1="238.828" y1="327.212" x2="273.723" y2="317.39"/>
				<line style="fill:#FFFFFF;stroke:#263238;stroke-miterlimit:10;" x1="220.481" y1="332.376" x2="232.353" y2="329.035"/>
				<line style="fill:#FFFFFF;stroke:#263238;stroke-miterlimit:10;" x1="259.332" y1="330.422" x2="313.294" y2="315.233"/>
				<line style="fill:#FFFFFF;stroke:#263238;stroke-miterlimit:10;" x1="224.797" y1="340.142" x2="247.46" y2="333.763"/>
			</g>
			
				<ellipse transform="matrix(0.3659 -0.9307 0.9307 0.3659 -66.9581 500.9898)" style="fill:#FFFFFF;stroke:#263238;stroke-miterlimit:10;" cx="334.161" cy="299.631" rx="8.481" ry="10.73"/>
		</g>
		<path style="fill:#C6FF00;stroke:#263238;stroke-miterlimit:10;" d="M210.466,125.397l-18.877,5.313
			c-1.428,0.056-3.034-0.054-3.439-0.784c-1.039-1.873,0.276-3.639,0.676-5.299c0.446-1.854,0.208-3.706-0.858-5.624
			c-2.648-4.765-9.089-7.419-14.387-5.928c-5.298,1.491-7.446,6.563-4.798,11.328c1.214,2.186,3.231,3.919,5.555,5.022
			c0,0,3.837,1.714,4.604,3.094c0.405,0.729-0.66,1.591-1.756,2.244l-20.345,5.727c-3.436,0.967-4.829,4.257-3.112,7.348
			l2.749,4.946l66.068-18.596l-2.749-4.946C218.08,126.151,213.902,124.43,210.466,125.397z M176.842,118.942
			c1.695-0.477,3.757,0.372,4.604,1.897c0.847,1.525,0.16,3.148-1.535,3.625c-1.695,0.477-3.757-0.372-4.604-1.897
			C174.459,121.042,175.146,119.419,176.842,118.942z"/>
		
			<polyline style="fill:none;stroke:#C6FF00;stroke-width:6;stroke-linecap:round;stroke-linejoin:round;stroke-miterlimit:10;" points="
			251.207,159.082 259.36,164.77 267.757,145.942 		"/>
		
			<polyline style="fill:none;stroke:#C6FF00;stroke-width:6;stroke-linecap:round;stroke-linejoin:round;stroke-miterlimit:10;" points="
			270.147,193.167 278.3,198.855 286.697,180.027 		"/>
	</g>
</g>
<g id="Character">
	<g>
		<path style="fill:#FFFFFF;stroke:#263238;stroke-linecap:round;stroke-linejoin:round;stroke-miterlimit:10;" d="M403.816,188.513
			c0,0,2.176-4.625,0.816-8.161c-1.36-3.536-26.388-9.249-26.388-9.249s-5.713,0-5.441,3.264
			c0.272,3.264,20.947,15.778,22.579,16.866C397.015,192.322,403.272,194.77,403.816,188.513z"/>
		<path style="fill:#FFFFFF;stroke:#263238;stroke-linecap:round;stroke-linejoin:round;stroke-miterlimit:10;" d="M380.313,166.533
			c0,0-2.376-0.864-4.537-1.944s0.216,3.889,1.08,4.105s3.025,0.648,3.025,0.648L380.313,166.533z"/>
		<g>
			<g>
				<path style="fill:#C6FF00;stroke:#263238;stroke-linecap:round;stroke-linejoin:round;stroke-miterlimit:10;" d="
					M305.611,214.901l-12.514,15.234l1.088,2.176l17.682-4.353l124.508-72.482c5.258-3.061,6.945-9.862,3.727-15.025l0,0
					c-3.195-5.126-9.977-6.63-15.039-3.334L305.611,214.901z"/>
				<g>
					
						<line style="fill:#FFFFFF;stroke:#263238;stroke-linecap:round;stroke-linejoin:round;stroke-miterlimit:10;" x1="368.172" y1="186.675" x2="364.114" y2="189.287"/>
					
						<line style="fill:#FFFFFF;stroke:#263238;stroke-linecap:round;stroke-linejoin:round;stroke-miterlimit:10;" x1="403.118" y1="164.185" x2="373.128" y2="183.485"/>
				</g>
			</g>
			<path style="fill:#C6FF00;stroke:#263238;stroke-linecap:round;stroke-linejoin:round;stroke-miterlimit:10;" d="
				M294.258,229.815c0,0-3.105,1.298-2.631,2.601c0.473,1.304,4.946-1.853,4.946-1.853L294.258,229.815z"/>
			<path style="fill:#FFFFFF;stroke:#263238;stroke-linecap:round;stroke-linejoin:round;stroke-miterlimit:10;" d="
				M293.097,230.135l1.088,2.176l17.682-4.353c-9.793-3.809-6.257-13.058-6.257-13.058L293.097,230.135z"/>
			<path style="fill:#FFFFFF;stroke:#263238;stroke-linecap:round;stroke-linejoin:round;stroke-miterlimit:10;" d="
				M440.103,140.451c-3.195-5.127-9.977-6.63-15.039-3.334l-21.723,14.145c-0.567,1.443-0.885,3.02-0.885,4.676
				c0,6.822,5.304,12.354,11.856,12.382l22.064-12.844C441.633,152.415,443.32,145.614,440.103,140.451z"/>
			<path style="fill:#263238;stroke:#263238;stroke-linecap:round;stroke-linejoin:round;stroke-miterlimit:10;" d="
				M440.103,140.451c-3.195-5.127-9.977-6.63-15.039-3.334l-16.507,10.749c-0.769,1.594-1.205,3.385-1.205,5.283
				c0,6.611,5.237,11.97,11.697,11.97c0.274,0,0.546-0.011,0.815-0.03l16.511-9.612C441.633,152.415,443.32,145.614,440.103,140.451
				z"/>
		</g>
		<path style="fill:#FFFFFF;stroke:#263238;stroke-linecap:round;stroke-linejoin:round;stroke-miterlimit:10;" d="M366.497,171.502
			c0,0-2.416,0-2.416,1.101s-0.636,5.014,0.763,4.891c1.399-0.122,1.272-2.568,1.399-3.424
			C366.369,173.214,366.497,171.502,366.497,171.502z"/>
		<path style="fill:#FFFFFF;stroke:#263238;stroke-linecap:round;stroke-linejoin:round;stroke-miterlimit:10;" d="M369.143,167.519
			c0,0-2.161-0.665-2.659,0.665c-0.499,1.33-0.997,7.646,0.499,7.48S368.811,169.846,369.143,167.519z"/>
		<path style="fill:#FFFFFF;stroke:#263238;stroke-linecap:round;stroke-linejoin:round;stroke-miterlimit:10;" d="M372.468,167.852
			c0,0-2.493-2.161-3.324-0.332c-0.831,1.828-0.997,6.981,0,6.981c0.997,0,2.493-2.161,2.826-3.324
			C372.301,170.013,372.468,167.852,372.468,167.852z"/>
		<path style="fill:#FFFFFF;stroke:#263238;stroke-linecap:round;stroke-linejoin:round;stroke-miterlimit:10;" d="M375.958,168.849
			c0,0-3.158-2.66-3.657-2.161c-0.499,0.499-2.497,5.619-0.997,6.649c1.499,1.03,3.392-3.564,3.392-3.564L375.958,168.849z"/>
		<path style="fill:#FFFFFF;stroke:#263238;stroke-linecap:round;stroke-linejoin:round;stroke-miterlimit:10;" d="M330.325,184.627
			c0,0,0.356,5.335,1.778,6.579c1.422,1.245,2.312,2.489,2.312,2.489s0.356,2.489,0.356,4.09s1.067,1.423,1.956,1.423
			s2.49,3.023,3.379,4.445c0.889,1.423,4.445,4.445,6.046,5.335c1.6,0.889,4.268-2.49,4.268-2.49l1.245,3.556l12.625-8.18
			l-6.224-12.092c0,0-0.178-5.512-3.734-11.914c-3.556-6.402-8.358-9.958-16.36-7.646
			C329.969,172.536,330.325,184.627,330.325,184.627z"/>
		<path style="fill:#263238;stroke:#263238;stroke-linecap:round;stroke-linejoin:round;stroke-miterlimit:10;" d="M344.942,160.935
			c0,0-3.783,0-8.731,1.746c-4.673,1.649-5.82,8.149-9.895,10.477c-4.074,2.328-2.328-2.037-4.365-0.873
			c-2.037,1.164-4.074,11.35,0.291,14.26c4.365,2.91,10.768-0.873,10.768-0.873s-0.582,2.037,1.164,2.619
			c1.746,0.582,3.201,0.873,3.201,0.873s-0.291,3.492,2.328,3.201s0.291-4.365,0.291-4.365s4.947,9.604,8.731,10.768
			c3.783,1.164,9.313-4.074,10.768-6.402s0.291-18.916-2.91-25.319C353.382,160.644,344.942,160.935,344.942,160.935z"/>
		<path style="fill:#FFFFFF;stroke:#263238;stroke-linecap:round;stroke-linejoin:round;stroke-miterlimit:10;" d="M340.105,194.23
			c0,0-1.778-6.757,1.067-5.868c2.845,0.889,4.445,6.935,4.268,7.646s-1.6,1.067-2.312,0.889"/>
		<path style="fill:#FFFFFF;stroke:#263238;stroke-linecap:round;stroke-linejoin:round;stroke-miterlimit:10;" d="M360.66,196.683
			c0,0-6.457,3.653-9.48,6.32c-3.023,2.667-5.69,10.669-5.69,10.669s18.316-12.447,21.516-14.226
			c3.201-1.778,3.912-2.667,3.912-2.667S364.217,195.794,360.66,196.683z"/>
		<path style="fill:#FFFFFF;stroke:#263238;stroke-linecap:round;stroke-linejoin:round;stroke-miterlimit:10;" d="M385.317,185.793
			c0,0,2.176-4.353,7.345-5.441c5.169-1.088,11.97,2.448,12.786,8.161c0.816,5.713-3.536,8.433-6.257,8.433
			c-2.72,0-5.169-3.809-5.169-3.809S385.317,189.873,385.317,185.793z"/>
		<path style="fill:#FFFFFF;stroke:#263238;stroke-linecap:round;stroke-linejoin:round;stroke-miterlimit:10;" d="M312.411,246.457
			l8.705-23.123c0,0-1.36,1.36-3.536,1.36s-7.345-0.816-5.985-1.632c1.36-0.816,6.529-4.353,6.529-4.353s-3.809,0.816-4.897,0
			c-1.088-0.816-1.632-1.904-0.816-2.176c0.816-0.272,2.448,0,5.441-1.088c2.992-1.088,4.353-2.176,6.801-2.176
			c2.448,0,4.625,4.353,4.625,5.713c0,1.36-1.904,27.204-1.904,28.292c0,1.088,0,2.176-7.073,2.992
			C313.227,251.081,312.139,249.449,312.411,246.457z"/>
		
			<line style="fill:#FFFFFF;stroke:#263238;stroke-linecap:round;stroke-linejoin:round;stroke-miterlimit:10;" x1="321.117" y1="223.334" x2="322.406" y2="218.25"/>
		<path style="fill:#FFFFFF;stroke:#263238;stroke-linecap:round;stroke-linejoin:round;stroke-miterlimit:10;" d="M320.844,240.744
			c0,0-8.705,2.448-10.337,6.257c-1.632,3.809-1.36,9.521,1.904,12.786c3.265,3.264,4.625,4.081,8.161,2.72
			c3.537-1.36,4.353-3.536,4.625-5.713C325.469,254.618,327.373,247.273,320.844,240.744z"/>
		<path style="fill:#FFFFFF;stroke:#263238;stroke-linecap:round;stroke-linejoin:round;stroke-miterlimit:10;" d="M317.308,356.087
			c0,0-7.617-3.536-10.609-2.176s-2.992,2.72,0.816,8.705s14.418,13.33,17.954,11.698c3.536-1.632,0.272-12.514,0.272-12.514
			L317.308,356.087z"/>
		<path style="fill:#FFFFFF;stroke:#263238;stroke-linecap:round;stroke-linejoin:round;stroke-miterlimit:10;" d="M311.867,364.521
			c-3.461-3.825-5.574-7.64-6.597-9.751c-1.405,1.236-0.8,3.063,2.244,7.846c3.809,5.985,14.418,13.33,17.954,11.698
			c0.899-0.415,1.357-1.429,1.543-2.709C322.033,373.711,316.825,370.001,311.867,364.521z"/>
		<path style="fill:#263238;stroke:#263238;stroke-linecap:round;stroke-linejoin:round;stroke-miterlimit:10;" d="M356.481,272.844
			l0.272,8.161c0,0-16.594,6.257-24.755,11.97c-8.161,5.713-13.602,10.065-14.418,15.506c-0.816,5.441-0.272,47.606-0.272,47.606
			s-2.448,0.544-1.632,2.176c0.816,1.632,2.448,7.617,4.625,8.161s4.897,1.632,5.441,0.272c0.544-1.36,2.176-9.521,3.264-12.242
			c1.088-2.72,2.992-15.506,4.625-24.483c1.632-8.977,1.632-15.234,1.632-15.234s7.345-0.816,16.866-4.081
			c9.521-3.264,23.395-9.249,23.395-9.249s11.154,28.02,13.602,33.461c2.448,5.441,11.97,17.682,13.874,21.219
			c1.904,3.536,13.874,18.771,13.874,18.771s4.625-4.081,7.617-4.081s4.081,0,4.081,0s-4.897-13.602-8.977-21.763
			c-4.081-8.161-12.514-21.491-12.514-21.491s-7.615-47.595-7.889-50.871c-0.526-6.278-4.55-15.763-4.55-15.763
			S381.509,258.154,356.481,272.844z"/>
		<g>
			<path style="fill:#FFFFFF;stroke:#263238;stroke-linecap:round;stroke-linejoin:round;stroke-miterlimit:10;" d="
				M416.873,374.858c0,0-1.632,2.72-1.904,3.536c-0.272,0.816-6.257,1.632-5.441,4.353s7.073,4.897,10.065,5.169
				c2.992,0.272,8.977-3.809,10.065-4.897c0.644-0.643,1.603-4.866,1.088-8.161c-0.355-2.276-2.176-4.081-2.176-4.081
				S423.402,362.888,416.873,374.858z"/>
			<path style="fill:#FFFFFF;stroke:#263238;stroke-linecap:round;stroke-linejoin:round;stroke-miterlimit:10;" d="
				M430.747,374.858c-0.261-1.673-1.31-3.084-1.849-3.718c-2.059,0.126-4.461,0.734-6.04,2.63c-2.72,3.264-1.36,10.609-4.625,11.698
				c-2.435,0.811-6.683-2.159-8.686-3.722c-0.107,0.303-0.129,0.633-0.019,1.001c0.816,2.72,7.073,4.897,10.065,5.169
				c2.992,0.272,8.977-3.809,10.065-4.897C430.303,382.376,431.262,378.154,430.747,374.858z"/>
			<path style="fill:#263238;stroke:#263238;stroke-linecap:round;stroke-linejoin:round;stroke-miterlimit:10;" d="
				M423.674,376.762c-1.088,4.897,0.272,8.161-4.081,11.154c2.992,0.272,8.977-3.809,10.065-4.897
				c0.644-0.643,1.603-4.866,1.088-8.161c-0.111-0.712-0.371-1.368-0.669-1.947l-0.419,0.043
				C429.659,372.954,424.762,371.866,423.674,376.762z"/>
		</g>
		
			<line style="fill:none;stroke:#FFFFFF;stroke-linecap:round;stroke-linejoin:round;stroke-miterlimit:10;" x1="378.244" y1="300.864" x2="394.294" y2="292.975"/>
		
			<line style="fill:none;stroke:#FFFFFF;stroke-linecap:round;stroke-linejoin:round;stroke-miterlimit:10;" x1="385.589" y1="297.328" x2="399.463" y2="295.423"/>
		<g>
			<g>
				<defs>
					<path id="XMLID_1_" d="M391.03,183.888c-4.625,0.544-16.594,8.705-17.41,9.521s-4.081,2.72-5.441,3.809
						c0,0-28.02,17.41-30.468,19.042c-2.448,1.632-7.345,4.897-7.073,5.985c0.272,1.088-14.418,25.027-14.418,25.027
						s-4.352,5.713-0.272,10.881c4.081,5.169,7.889,1.632,9.793,0.544c1.904-1.088,16.866-15.234,16.866-15.234l13.806,32.946
						c0,0,19.111-12.815,39.513-11.999l-13.602-53.319c0,0,18.77-14.146,19.315-19.043
						C402.183,187.153,395.655,183.344,391.03,183.888z"/>
				</defs>
				<use xlink:href="#XMLID_1_"  style="overflow:visible;fill:#FFFFFF;"/>
				<clipPath id="XMLID_00000058570871435537535910000002359030089741884554_">
					<use xlink:href="#XMLID_1_"  style="overflow:visible;"/>
				</clipPath>
				<path style="clip-path:url(#XMLID_00000058570871435537535910000002359030089741884554_);fill:#C6FF00;" d="M391.03,183.888
					c-1.853,0.218-4.884,1.659-7.905,3.36c1.032-0.188,2.431-0.037,3.646,1.525c2.246,2.888-2.567,12.194-2.567,12.194
					s-1.972-12.861-1.925-8.985c0.046,3.876-0.963,15.724-0.963,15.724s-6.418-7.702-6.097-5.776
					c0.321,1.925,4.493,19.896,7.06,26.635c2.567,6.739-1.925,25.672-4.493,31.128c-2.567,5.455-0.963-23.105-3.851-16.045
					c-2.888,7.06-12.515,26.635-14.762,28.561c-2.157,1.849,0.714-26.165,1.515-29.824c-0.979,3.053-7.612,22.443-7.612,22.443
					l-8.985-23.105c0,0-15.403-12.515-13.799-10.269c1.605,2.246,5.455,9.306,5.455,9.306s-9.306-1.925-7.702-1.284
					c1.604,0.642,8.664,4.172,8.664,4.172s-14.441,10.269-18.612,11.553c-1.133,0.349-2.311,0.529-3.436,0.63
					c0.276,0.773,0.679,1.554,1.287,2.324c4.08,5.169,7.889,1.632,9.793,0.544c1.904-1.088,16.866-15.234,16.866-15.234
					l13.806,32.946c0,0,19.111-12.815,39.514-11.999l-13.602-53.319c0,0,18.77-14.146,19.315-19.042
					C402.183,187.153,395.654,183.344,391.03,183.888z"/>
				<path style="opacity:0.5;clip-path:url(#XMLID_00000058570871435537535910000002359030089741884554_);fill:#FFFFFF;" d="
					M391.03,183.888c-1.853,0.218-4.884,1.659-7.905,3.36c1.032-0.188,2.431-0.037,3.646,1.525
					c2.246,2.888-2.567,12.194-2.567,12.194s-1.972-12.861-1.925-8.985c0.046,3.876-0.963,15.724-0.963,15.724
					s-6.418-7.702-6.097-5.776c0.321,1.925,4.493,19.896,7.06,26.635c2.567,6.739-1.925,25.672-4.493,31.128
					c-2.567,5.455-0.963-23.105-3.851-16.045c-2.888,7.06-12.515,26.635-14.762,28.561c-2.157,1.849,0.714-26.165,1.515-29.824
					c-0.979,3.053-7.612,22.443-7.612,22.443l-8.985-23.105c0,0-15.403-12.515-13.799-10.269c1.605,2.246,5.455,9.306,5.455,9.306
					s-9.306-1.925-7.702-1.284c1.604,0.642,8.664,4.172,8.664,4.172s-14.441,10.269-18.612,11.553
					c-1.133,0.349-2.311,0.529-3.436,0.63c0.276,0.773,0.679,1.554,1.287,2.324c4.08,5.169,7.889,1.632,9.793,0.544
					c1.904-1.088,16.866-15.234,16.866-15.234l13.806,32.946c0,0,19.111-12.815,39.514-11.999l-13.602-53.319
					c0,0,18.77-14.146,19.315-19.042C402.183,187.153,395.654,183.344,391.03,183.888z"/>
				
					<use xlink:href="#XMLID_1_"  style="overflow:visible;fill:none;stroke:#263238;stroke-linecap:round;stroke-linejoin:round;stroke-miterlimit:10;"/>
			</g>
			<path style="fill:#FFFFFF;stroke:#263238;stroke-linecap:round;stroke-linejoin:round;stroke-miterlimit:10;" d="M356.413,276.41
				c0,0-1.437-9.485,1.15-22.419"/>
			<path style="fill:#FFFFFF;stroke:#263238;stroke-linecap:round;stroke-linejoin:round;stroke-miterlimit:10;" d="M353.826,259.74
				c0,0,0-4.599,5.174-18.97"/>
			<polyline style="fill:#FFFFFF;stroke:#263238;stroke-linecap:round;stroke-linejoin:round;stroke-miterlimit:10;" points="
				331.998,231.495 342.607,243.464 331.726,235.575 			"/>
			<polyline style="fill:#FFFFFF;stroke:#263238;stroke-linecap:round;stroke-linejoin:round;stroke-miterlimit:10;" points="
				382.325,195.858 382.325,211.092 385.861,191.505 			"/>
		</g>
	</g>
	<g>
		<path style="fill:#263238;" d="M360.778,242.044c-0.026,0.064-0.057,0.189-0.09,0.341
			C360.806,242.015,360.847,241.87,360.778,242.044z"/>
	</g>
</g>
</svg>
